<svg xmlns="http://www.w3.org/2000/svg" xmlns:v="https://svgstorm.com"
viewBox = "0 0 306 298"
width="306"
height="298">
<g fill="None" fill-opacity="0.0" stroke="#1275BE" stroke-opacity="1.00" stroke-width="0.3"><path d="
M 0.00 298.00 
L 1.00 298.00
C 1.00 198.67 1.00 99.33 1.00 0.00
L 0.00 0.00
L 0.00 298.00 Z"/>
</g>
<g fill="None" fill-opacity="0.0" stroke="#0D99FF" stroke-opacity="1.00" stroke-width="0.3"><path d="
M 1.00 298.00 
L 306.00 298.00
L 306.00 297.00
C 204.67 297.00 103.33 297.00 2.00 297.00
C 2.00 198.33 2.00 99.67 2.00 1.00
C 103.33 1.00 204.67 1.00 306.00 1.00
L 306.00 0.00
L 1.00 0.00
C 1.00 99.33 1.00 198.67 1.00 298.00 Z"/>
</g>
<g fill="None" fill-opacity="0.0" stroke="#1C649A" stroke-opacity="1.00" stroke-width="0.3"><path d="
M 306.00 297.00 
L 306.00 296.00
C 205.00 296.00 104.00 296.00 3.00 296.00
C 3.00 198.00 3.00 100.00 3.00 2.00
C 104.00 2.00 205.00 2.00 306.00 2.00
L 306.00 1.00
C 204.67 1.00 103.33 1.00 2.00 1.00
C 2.00 99.67 2.00 198.33 2.00 297.00
C 103.33 297.00 204.67 297.00 306.00 297.00 Z"/>
</g>
<g fill="None" fill-opacity="0.0" stroke="#343A40" stroke-opacity="1.00" stroke-width="0.3"><path d="
M 306.00 296.00 
L 306.00 2.00
C 205.00 2.00 104.00 2.00 3.00 2.00
C 3.00 100.00 3.00 198.00 3.00 296.00
C 104.00 296.00 205.00 296.00 306.00 296.00
M 250.00 153.00 
C 249.75 153.25 250.00 154.00 250.00 154.00
C 249.64 156.94 244.40 160.11 242.00 162.00
C 239.53 163.95 237.23 165.50 235.00 167.00
C 231.98 169.61 226.00 175.14 222.00 175.00
C 220.01 180.58 209.20 181.95 204.92 186.92 C 200.63 191.89 191.09 193.26 185.00 196.00 C 178.91 198.73 170.11 203.07 163.00 204.00
C 151.74 207.80 141.10 212.00 128.00 212.00
C 127.50 212.00 126.50 212.00 126.00 212.00
C 114.59 216.85 88.87 214.62 78.00 209.00
C 70.09 206.33 61.82 201.87 57.00 194.00
C 51.31 184.71 50.76 172.64 53.00 162.00
C 53.76 158.39 53.71 157.19 57.00 155.00
C 59.30 150.96 61.15 146.27 64.25 142.25 C 67.35 138.23 71.47 133.37 72.00 133.00
C 72.64 132.01 74.39 130.92 75.00 130.00
C 79.70 119.10 93.04 106.65 103.00 102.00
C 105.70 100.19 107.48 97.81 111.00 97.00
C 112.91 91.63 121.66 90.63 125.68 86.68 C 129.70 82.73 136.14 80.22 142.07 78.07 C 148.00 75.93 154.48 71.85 161.00 71.00
C 191.22 60.26 235.73 47.49 266.70 68.30 C 297.66 89.11 273.54 136.56 250.00 153.00
M 67.00 238.00 
C 66.67 243.65 69.14 254.65 66.00 259.00
C 63.04 263.10 56.46 260.06 52.00 261.00
C 51.68 256.85 53.73 253.28 53.00 249.00
C 53.12 242.87 53.13 237.94 55.00 233.00
C 55.43 231.87 56.80 232.34 57.00 231.00
C 48.30 228.57 52.30 218.27 60.01 218.01 C 67.71 217.75 72.48 226.94 64.00 231.00
C 66.73 231.54 70.02 235.45 67.00 238.00
M 47.00 233.00 
C 35.44 227.60 28.38 237.30 39.75 241.25 C 51.11 245.21 47.81 258.18 39.30 260.30 C 30.80 262.43 13.85 263.95 16.00 251.00
C 21.28 251.20 29.40 256.37 33.00 250.00
C 27.13 245.41 13.24 235.97 20.25 228.25 C 27.26 220.53 48.67 220.38 47.00 233.00
M 127.00 235.00 
C 129.19 239.82 124.57 243.68 120.00 242.00
C 120.99 243.85 118.14 252.11 121.26 252.74 C 124.37 253.38 130.00 254.44 125.00 258.00
C 124.53 258.68 125.37 260.26 125.00 261.00
C 115.28 262.57 102.56 260.96 106.00 248.00
C 105.95 246.99 104.83 242.46 105.00 242.00
C 104.00 242.05 103.00 241.96 102.00 242.00
C 100.64 236.72 103.48 231.97 109.00 232.00
C 109.63 230.26 108.90 229.49 110.00 228.00
C 113.34 223.47 124.27 225.65 121.00 233.00
C 122.99 233.45 127.23 231.64 127.00 235.00
M 90.00 245.00 
C 106.18 255.88 87.97 263.87 75.00 261.00
C 64.35 258.64 75.57 247.63 83.00 253.00
C 83.53 251.72 82.03 251.14 82.00 250.00
C 79.40 246.77 69.36 242.82 74.26 237.26 C 79.16 231.69 87.15 231.84 94.00 233.00
C 98.42 233.75 99.86 236.23 99.00 241.00
C 95.33 241.00 91.67 241.00 88.00 241.00
C 87.45 242.82 89.75 243.47 90.00 245.00
M 143.00 252.00 
C 143.58 252.95 145.16 252.71 146.00 253.00
C 150.88 253.09 168.28 247.39 161.00 258.00
C 158.93 261.02 160.62 260.44 156.00 261.00
C 151.27 261.57 144.70 261.72 140.00 261.00
C 128.63 259.27 126.85 246.49 133.00 239.00
C 141.31 228.89 167.34 230.00 164.00 248.00
C 157.00 248.00 150.00 248.00 143.00 248.00
C 143.00 249.33 143.00 250.67 143.00 252.00
M 184.00 235.00 
C 188.68 234.17 196.76 229.68 200.00 236.00
C 206.05 234.10 213.94 230.24 220.00 235.00
C 224.47 238.33 225.62 259.00 220.00 261.00
C 211.98 263.85 209.14 259.81 209.00 253.00
C 208.91 248.36 210.43 239.12 203.00 243.00
C 202.63 243.81 202.31 245.29 202.00 246.00
C 201.08 250.18 203.41 255.59 201.00 259.00
C 199.64 260.92 193.22 262.56 190.00 261.00
C 187.20 259.65 188.07 257.31 188.00 254.00
C 187.93 250.33 188.05 246.67 188.00 243.00
C 181.84 241.31 184.23 249.43 182.00 252.00
C 182.00 252.50 182.00 253.00 182.00 253.00
C 182.00 254.61 183.13 261.96 180.00 261.00
C 176.94 262.36 172.21 259.98 169.00 261.00
C 169.00 256.00 169.00 251.00 169.00 246.00
C 169.00 242.04 167.38 235.47 171.10 233.10 C 174.82 230.73 181.35 234.98 184.00 235.00
M 259.00 235.00 
C 263.09 237.86 261.49 241.37 261.00 245.00
C 260.99 246.33 261.00 247.67 261.00 249.00
C 261.00 252.25 261.74 256.54 260.00 259.00
C 257.50 262.53 251.66 260.50 247.00 261.00
C 246.52 257.13 248.71 253.95 248.00 250.00
C 244.64 250.39 239.99 250.05 239.00 254.00
C 243.73 254.78 246.10 255.84 244.00 261.00
C 240.00 261.00 236.00 261.00 232.00 261.00
C 227.03 259.86 225.33 254.81 227.00 251.00
C 230.51 242.97 239.90 245.59 246.00 243.00
C 246.83 242.45 246.94 240.86 247.00 240.00
C 241.39 239.29 236.47 241.10 231.00 241.00
C 231.11 240.00 230.53 238.27 232.00 238.00
C 232.32 236.30 232.03 236.25 233.00 235.00
C 234.74 232.75 237.30 233.15 240.00 233.00
C 244.77 232.74 255.43 231.42 259.00 235.00
M 292.00 240.00 
C 289.95 243.01 283.59 239.18 281.00 242.00
C 280.73 244.71 296.71 249.19 291.67 255.67 C 286.63 262.15 279.02 261.97 271.00 261.00
C 269.36 260.80 267.65 261.15 266.00 261.00
C 266.00 258.33 266.00 255.67 266.00 253.00
C 268.55 250.37 273.49 254.52 277.00 253.00
C 277.53 251.72 276.03 251.14 276.00 250.00
C 271.89 246.64 268.12 246.27 268.00 240.00 C 267.89 233.72 275.87 233.38 280.00 233.00 C 284.13 232.62 297.03 232.60 292.00 240.00 Z"/>
</g>
<g fill="None" fill-opacity="0.0" stroke="#33486D" stroke-opacity="1.00" stroke-width="0.3"><path d="
M 161.00 71.00 
C 170.88 69.71 179.58 66.21 190.00 66.00
C 216.54 65.47 256.40 54.48 271.00 84.00
C 257.47 82.30 244.56 77.74 231.00 79.00
C 234.25 79.62 238.24 81.83 242.00 82.00
C 239.79 85.03 234.09 84.65 231.00 84.00
C 228.62 90.08 239.36 90.68 239.00 96.00
C 241.86 96.35 244.39 95.73 247.00 95.00
C 252.30 94.53 256.98 94.83 261.00 97.00
C 264.96 99.14 273.66 107.02 265.00 110.00
C 264.55 110.15 263.48 109.91 263.00 110.00
C 262.42 111.28 263.13 111.04 262.00 112.00
C 261.02 112.83 259.98 112.49 259.00 113.00
C 255.74 114.70 254.13 114.92 253.00 110.00
C 250.66 109.18 246.50 110.00 244.00 110.00
C 244.49 112.06 241.14 112.83 240.00 114.00
C 243.04 121.09 244.24 129.26 250.00 135.00
C 253.11 139.87 254.73 148.36 250.00 153.00
C 273.54 136.56 297.66 89.11 266.70 68.30 C 235.73 47.49 191.22 60.26 161.00 71.00 Z"/>
</g>
<g fill="None" fill-opacity="0.0" stroke="#4B6083" stroke-opacity="1.00" stroke-width="0.3"><path d="
M 190.00 66.00 
C 186.98 66.76 183.80 70.56 180.00 70.00
C 195.61 76.25 213.75 77.35 231.00 79.00
C 244.56 77.74 257.47 82.30 271.00 84.00
C 256.40 54.48 216.54 65.47 190.00 66.00 Z"/>
</g>
<g fill="None" fill-opacity="0.0" stroke="#30537E" stroke-opacity="1.00" stroke-width="0.3"><path d="
M 161.00 71.00 
C 154.48 71.85 148.00 75.93 142.07 78.07 C 136.14 80.22 129.70 82.73 125.68 86.68 C 121.66 90.63 112.91 91.63 111.00 97.00
C 111.47 96.89 112.00 97.00 112.00 97.00
C 112.50 97.00 113.50 97.00 114.00 97.00
C 116.19 94.93 116.81 95.24 120.00 95.00
C 129.28 92.18 136.10 86.65 145.69 82.69 C 155.29 78.74 168.41 77.78 179.00 78.00 C 189.59 78.22 197.83 86.36 206.75 88.25 C 215.66 90.15 220.30 105.47 229.00 105.00
C 233.62 101.20 239.78 99.54 245.00 97.00
C 245.45 96.78 246.60 95.14 247.00 95.00
C 244.39 95.73 241.86 96.35 239.00 96.00
C 239.36 90.68 228.62 90.08 231.00 84.00
C 234.09 84.65 239.79 85.03 242.00 82.00
C 238.24 81.83 234.25 79.62 231.00 79.00
C 213.75 77.35 195.61 76.25 180.00 70.00
C 183.80 70.56 186.98 66.76 190.00 66.00
C 179.58 66.21 170.88 69.71 161.00 71.00 Z"/>
</g>
<g fill="None" fill-opacity="0.0" stroke="#2F6292" stroke-opacity="1.00" stroke-width="0.3"><path d="
M 120.00 95.00 
C 126.75 94.48 142.87 93.50 146.00 101.00
C 149.24 102.44 146.49 104.50 144.00 104.00
C 142.69 108.70 141.50 113.24 138.00 117.00
C 123.63 102.09 99.39 111.86 91.00 128.00
C 89.94 129.76 89.18 132.12 88.00 134.00
C 87.18 135.81 86.95 138.15 86.00 140.00
C 95.87 136.01 109.29 132.04 120.00 131.00
C 124.26 130.01 127.84 127.64 133.00 128.00
C 135.32 127.55 138.18 126.19 141.00 126.00
C 142.65 125.89 144.35 126.00 146.00 126.00
C 146.50 126.00 147.81 126.24 148.00 126.00
C 151.47 117.96 154.61 109.05 159.00 101.00
C 163.41 92.92 184.54 96.88 192.00 99.00
C 193.86 99.19 195.17 99.81 197.00 100.00
C 197.91 100.09 199.13 99.74 200.00 100.00
C 210.09 103.03 213.44 123.10 207.00 129.00
C 209.78 132.64 218.11 133.22 222.00 136.00
C 212.73 127.30 220.93 111.63 229.00 105.00
C 220.30 105.47 215.66 90.15 206.75 88.25 C 197.83 86.36 189.59 78.22 179.00 78.00 C 168.41 77.78 155.29 78.74 145.69 82.69 C 136.10 86.65 129.28 92.18 120.00 95.00 Z"/>
</g>
<g fill="None" fill-opacity="0.0" stroke="#8AA4BE" stroke-opacity="1.00" stroke-width="0.3"><path d="
M 114.00 97.00 
C 114.50 97.00 115.50 97.00 116.00 97.00
C 126.36 97.00 136.26 95.57 145.00 101.00
C 145.36 101.22 146.00 101.00 146.00 101.00
C 142.87 93.50 126.75 94.48 120.00 95.00
C 116.81 95.24 116.19 94.93 114.00 97.00 Z"/>
</g>
<g fill="None" fill-opacity="0.0" stroke="#60718F" stroke-opacity="1.00" stroke-width="0.3"><path d="
M 245.00 97.00 
C 245.80 96.76 247.16 97.00 248.00 97.00
C 251.54 96.22 254.52 96.24 258.00 97.00
C 258.94 97.21 260.08 96.73 261.00 97.00
C 256.98 94.83 252.30 94.53 247.00 95.00
C 246.60 95.14 245.45 96.78 245.00 97.00 Z"/>
</g>
<g fill="None" fill-opacity="0.0" stroke="#8B97AD" stroke-opacity="1.00" stroke-width="0.3"><path d="
M 248.00 97.00 
C 251.08 97.00 255.00 96.34 258.00 97.00
C 254.52 96.24 251.54 96.22 248.00 97.00 Z"/>
</g>
<g fill="None" fill-opacity="0.0" stroke="#85909D" stroke-opacity="1.00" stroke-width="0.3"><path d="
M 103.00 102.00 
C 104.77 101.17 106.14 100.53 108.00 100.00
C 109.16 99.40 110.85 97.48 112.00 97.00
C 112.00 97.00 111.47 96.89 111.00 97.00
C 107.48 97.81 105.70 100.19 103.00 102.00 Z"/>
</g>
<g fill="None" fill-opacity="0.0" stroke="#BAC5D3" stroke-opacity="1.00" stroke-width="0.3"><path d="
M 108.00 100.00 
C 110.37 99.33 114.31 97.34 116.00 97.00
C 115.50 97.00 114.50 97.00 114.00 97.00
C 113.50 97.00 112.50 97.00 112.00 97.00
C 110.85 97.48 109.16 99.40 108.00 100.00 Z"/>
</g>
<g fill="None" fill-opacity="0.0" stroke="#F6F3F5" stroke-opacity="1.00" stroke-width="0.3"><path d="
M 108.00 100.00 
C 106.14 100.53 104.77 101.17 103.00 102.00
C 93.04 106.65 79.70 119.10 75.00 130.00
C 73.47 133.54 71.60 136.94 70.00 140.00
C 68.98 143.61 68.15 146.01 68.00 150.00
C 67.80 155.30 67.43 160.44 70.00 165.00
C 80.39 178.70 97.86 176.25 112.00 170.00
C 114.49 168.09 115.69 164.49 117.00 162.00
C 117.44 160.37 118.13 158.82 118.00 157.00
C 110.40 161.12 97.74 165.05 89.00 160.00
C 83.60 155.90 82.10 148.47 83.00 142.00
C 83.81 136.21 87.54 131.53 91.00 128.00
C 99.39 111.86 123.63 102.09 138.00 117.00
C 141.50 113.24 142.69 108.70 144.00 104.00
C 144.17 103.40 144.31 101.38 145.00 101.00
C 136.26 95.57 126.36 97.00 116.00 97.00
C 114.31 97.34 110.37 99.33 108.00 100.00 Z"/>
</g>
<g fill="None" fill-opacity="0.0" stroke="#AAC2D6" stroke-opacity="1.00" stroke-width="0.3"><path d="
M 159.00 101.00 
C 162.63 97.27 168.87 99.08 174.00 99.00 C 179.13 98.92 186.71 98.47 192.00 99.00
C 184.54 96.88 163.41 92.92 159.00 101.00 Z"/>
</g>
<g fill="None" fill-opacity="0.0" stroke="#AFC1D3" stroke-opacity="1.00" stroke-width="0.3"><path d="
M 229.00 105.00 
C 220.93 111.63 212.73 127.30 222.00 136.00
C 222.27 136.25 223.00 136.00 223.00 136.00
C 222.05 128.82 216.42 127.00 221.31 118.31 C 226.19 109.61 235.36 99.86 245.00 97.00
C 239.78 99.54 233.62 101.20 229.00 105.00 Z"/>
</g>
<g fill="None" fill-opacity="0.0" stroke="#F8F7F8" stroke-opacity="1.00" stroke-width="0.3"><path d="
M 223.00 136.00 
C 226.53 138.69 229.86 141.07 233.00 144.00
C 238.73 149.35 236.87 153.86 230.00 157.00
C 228.75 157.81 227.46 159.64 226.00 160.00
C 225.52 160.46 211.66 165.20 212.00 154.00
C 210.34 154.54 209.67 156.56 208.00 157.00
C 205.75 158.42 203.06 159.96 201.00 162.00
C 199.78 163.42 196.87 164.32 198.00 167.00
C 198.20 167.48 199.67 167.73 200.00 168.00
C 202.80 170.30 205.37 171.97 209.01 172.99 C 212.65 174.01 218.23 172.95 221.00 175.00
C 221.50 175.00 222.00 175.00 222.00 175.00
C 226.00 175.14 231.98 169.61 235.00 167.00
C 244.76 158.57 260.39 142.79 245.00 131.00
C 236.66 125.56 228.45 116.46 242.00 110.00
C 246.75 107.30 254.23 106.55 257.00 113.00
C 258.87 112.99 262.01 108.21 262.00 112.00
C 263.13 111.04 262.42 111.28 263.00 110.00
C 263.76 108.34 265.47 106.82 267.00 106.00
C 266.48 100.77 261.47 99.24 258.00 97.00
C 255.00 96.34 251.08 97.00 248.00 97.00
C 247.16 97.00 245.80 96.76 245.00 97.00
C 235.36 99.86 226.19 109.61 221.31 118.31 C 216.42 127.00 222.05 128.82 223.00 136.00 Z"/>
</g>
<g fill="None" fill-opacity="0.0" stroke="#C2C8D3" stroke-opacity="1.00" stroke-width="0.3"><path d="
M 263.00 110.00 
C 263.48 109.91 264.55 110.15 265.00 110.00
C 266.02 109.40 266.37 106.96 268.00 107.00
C 267.87 102.59 264.15 99.37 261.00 97.00
C 260.08 96.73 258.94 97.21 258.00 97.00
C 261.47 99.24 266.48 100.77 267.00 106.00
C 265.47 106.82 263.76 108.34 263.00 110.00 Z"/>
</g>
<g fill="None" fill-opacity="0.0" stroke="#8893A9" stroke-opacity="1.00" stroke-width="0.3"><path d="
M 265.00 110.00 
C 273.66 107.02 264.96 99.14 261.00 97.00
C 264.15 99.37 267.87 102.59 268.00 107.00
C 266.37 106.96 266.02 109.40 265.00 110.00 Z"/>
</g>
<g fill="None" fill-opacity="0.0" stroke="#FBF9FA" stroke-opacity="1.00" stroke-width="0.3"><path d="
M 159.00 101.00 
C 154.61 109.05 151.47 117.96 148.00 126.00
C 144.70 133.66 140.61 140.22 138.00 148.00
C 137.57 149.29 137.32 150.63 137.00 152.00
C 135.63 157.81 133.33 162.12 130.00 167.00
C 129.21 168.16 127.70 169.44 128.00 171.00
C 129.44 174.40 139.53 171.39 144.00 172.00 C 148.47 172.61 155.35 172.57 161.02 171.02 C 166.70 169.47 167.11 170.23 174.08 166.08 C 181.05 161.94 187.38 158.57 192.75 151.75 C 198.12 144.94 203.28 136.86 206.00 129.00
C 205.74 128.76 206.00 126.39 206.00 126.00
C 206.00 120.67 206.00 115.33 206.00 110.00
C 206.00 109.50 206.00 109.00 206.00 109.00
C 206.00 108.50 206.00 108.00 206.00 108.00
C 203.21 105.33 200.65 101.49 197.00 100.00
C 195.17 99.81 193.86 99.19 192.00 99.00
C 186.71 98.47 179.13 98.92 174.00 99.00 C 168.87 99.08 162.63 97.27 159.00 101.00
M 192.00 126.00 
C 190.92 131.05 189.87 133.68 187.00 138.00
C 184.21 144.45 176.44 155.37 169.00 157.00
C 168.80 164.19 136.05 163.20 149.00 153.00
C 149.13 152.90 151.04 151.94 151.00 152.00
C 151.90 149.20 153.00 146.73 154.00 144.00
C 156.53 137.05 158.82 129.91 163.00 124.00
C 163.42 121.09 165.86 117.70 167.00 115.00
C 170.09 107.67 177.58 109.64 185.01 110.99 C 192.44 112.34 193.20 120.40 192.00 126.00 Z"/>
</g>
<g fill="None" fill-opacity="0.0" stroke="#A1BBD1" stroke-opacity="1.00" stroke-width="0.3"><path d="
M 206.00 108.00 
C 205.63 106.12 201.83 100.81 200.00 100.00
C 199.13 99.74 197.91 100.09 197.00 100.00
C 200.65 101.49 203.21 105.33 206.00 108.00 Z"/>
</g>
<g fill="None" fill-opacity="0.0" stroke="#467CA9" stroke-opacity="1.00" stroke-width="0.3"><path d="
M 206.00 108.00 
C 206.00 108.00 206.00 108.50 206.00 109.00
C 210.90 112.76 209.58 124.03 207.00 129.00
C 213.44 123.10 210.09 103.03 200.00 100.00
C 201.83 100.81 205.63 106.12 206.00 108.00 Z"/>
</g>
<g fill="None" fill-opacity="0.0" stroke="#BC585F" stroke-opacity="1.00" stroke-width="0.3"><path d="
M 144.00 104.00 
C 146.49 104.50 149.24 102.44 146.00 101.00
C 146.00 101.00 145.36 101.22 145.00 101.00
C 144.31 101.38 144.17 103.40 144.00 104.00 Z"/>
</g>
<g fill="None" fill-opacity="0.0" stroke="#BAC3D1" stroke-opacity="1.00" stroke-width="0.3"><path d="
M 242.00 110.00 
C 242.41 109.81 243.50 110.00 244.00 110.00
C 246.50 110.00 250.66 109.18 253.00 110.00
C 256.59 111.26 254.51 114.27 259.00 113.00
C 259.98 112.49 261.02 112.83 262.00 112.00
C 262.01 108.21 258.87 112.99 257.00 113.00
C 254.23 106.55 246.75 107.30 242.00 110.00 Z"/>
</g>
<g fill="None" fill-opacity="0.0" stroke="#7DA4C3" stroke-opacity="1.00" stroke-width="0.3"><path d="
M 206.00 110.00 
C 209.98 114.90 206.90 121.04 206.00 126.00
C 206.00 126.39 205.74 128.76 206.00 129.00
C 206.27 129.25 207.00 129.00 207.00 129.00
C 209.58 124.03 210.90 112.76 206.00 109.00
C 206.00 109.00 206.00 109.50 206.00 110.00 Z"/>
</g>
<g fill="None" fill-opacity="0.0" stroke="#AAC6DB" stroke-opacity="1.00" stroke-width="0.3"><path d="
M 167.00 115.00 
C 172.72 107.15 197.87 112.78 192.00 126.00
C 193.20 120.40 192.44 112.34 185.01 110.99 C 177.58 109.64 170.09 107.67 167.00 115.00 Z"/>
</g>
<g fill="None" fill-opacity="0.0" stroke="#C3D4E2" stroke-opacity="1.00" stroke-width="0.3"><path d="
M 206.00 126.00 
C 206.90 121.04 209.98 114.90 206.00 110.00
C 206.00 115.33 206.00 120.67 206.00 126.00 Z"/>
</g>
<g fill="None" fill-opacity="0.0" stroke="#446890" stroke-opacity="1.00" stroke-width="0.3"><path d="
M 245.00 131.00 
C 246.43 131.93 249.04 133.72 250.00 135.00
C 244.24 129.26 243.04 121.09 240.00 114.00
C 241.14 112.83 244.49 112.06 244.00 110.00
C 243.50 110.00 242.41 109.81 242.00 110.00
C 228.45 116.46 236.66 125.56 245.00 131.00 Z"/>
</g>
<g fill="None" fill-opacity="0.0" stroke="#8896AE" stroke-opacity="1.00" stroke-width="0.3"><path d="
M 259.00 113.00 
C 254.51 114.27 256.59 111.26 253.00 110.00
C 254.13 114.92 255.74 114.70 259.00 113.00 Z"/>
</g>
<g fill="None" fill-opacity="0.0" stroke="#568DB8" stroke-opacity="1.00" stroke-width="0.3"><path d="
M 167.00 115.00 
C 165.86 117.70 163.42 121.09 163.00 124.00
C 163.23 123.75 164.00 124.00 164.00 124.00
C 166.79 121.26 168.25 117.11 169.00 113.00
C 177.76 111.86 195.24 113.15 190.00 126.00
C 190.06 125.84 191.92 126.19 192.00 126.00
C 197.87 112.78 172.72 107.15 167.00 115.00 Z"/>
</g>
<g fill="None" fill-opacity="0.0" stroke="#346CA1" stroke-opacity="1.00" stroke-width="0.3"><path d="
M 164.00 124.00 
C 164.25 124.25 164.00 125.00 164.00 125.00
C 167.46 125.31 173.52 125.08 176.67 125.33 C 179.82 125.58 187.30 127.91 190.00 126.00
C 195.24 113.15 177.76 111.86 169.00 113.00
C 168.25 117.11 166.79 121.26 164.00 124.00 Z"/>
</g>
<g fill="None" fill-opacity="0.0" stroke="#F2CBCD" stroke-opacity="1.00" stroke-width="0.3"><path d="
M 154.00 144.00 
C 156.21 140.24 157.69 137.49 159.00 133.00
C 159.84 130.10 160.85 126.29 163.00 124.00
C 158.82 129.91 156.53 137.05 154.00 144.00 Z"/>
</g>
<g fill="None" fill-opacity="0.0" stroke="#DF969C" stroke-opacity="1.00" stroke-width="0.3"><path d="
M 159.00 133.00 
C 160.15 130.48 162.83 127.97 164.00 125.00
C 164.00 125.00 164.25 124.25 164.00 124.00
C 164.00 124.00 163.23 123.75 163.00 124.00
C 160.85 126.29 159.84 130.10 159.00 133.00 Z"/>
</g>
<g fill="None" fill-opacity="0.0" stroke="#CD3640" stroke-opacity="1.00" stroke-width="0.3"><path d="
M 159.00 133.00 
C 157.69 137.49 156.21 140.24 154.00 144.00
C 153.00 146.73 151.90 149.20 151.00 152.00
C 150.36 154.00 149.43 155.90 149.00 158.00
C 155.25 161.02 161.81 157.52 168.00 157.00
C 168.50 156.99 169.00 157.00 169.00 157.00
C 176.44 155.37 184.21 144.45 187.00 138.00
C 188.68 134.11 188.60 129.83 190.00 126.00
C 187.30 127.91 179.82 125.58 176.67 125.33 C 173.52 125.08 167.46 125.31 164.00 125.00
C 162.83 127.97 160.15 130.48 159.00 133.00 Z"/>
</g>
<g fill="None" fill-opacity="0.0" stroke="#6D5175" stroke-opacity="1.00" stroke-width="0.3"><path d="
M 133.00 128.00 
C 133.50 128.03 134.58 128.18 135.00 128.00
C 135.65 127.72 137.28 128.00 138.00 128.00
C 138.57 127.89 140.48 126.12 141.00 126.00
C 138.18 126.19 135.32 127.55 133.00 128.00 Z"/>
</g>
<g fill="None" fill-opacity="0.0" stroke="#93455E" stroke-opacity="1.00" stroke-width="0.3"><path d="
M 138.00 128.00 
C 141.42 128.01 143.33 127.28 146.00 126.00
C 144.35 126.00 142.65 125.89 141.00 126.00
C 140.48 126.12 138.57 127.89 138.00 128.00 Z"/>
</g>
<g fill="None" fill-opacity="0.0" stroke="#BD323A" stroke-opacity="1.00" stroke-width="0.3"><path d="
M 138.00 128.00 
C 137.28 128.00 135.65 127.72 135.00 128.00
C 130.25 129.28 125.40 130.48 120.00 131.00
C 109.29 132.04 95.87 136.01 86.00 140.00
C 85.83 140.33 85.05 140.77 85.00 141.00
C 80.52 161.20 99.57 161.77 113.00 157.00
C 115.24 156.20 116.86 155.04 119.00 154.00
C 119.87 153.58 120.24 151.09 122.00 152.00
C 121.40 158.51 118.66 168.22 112.00 170.00
C 97.86 176.25 80.39 178.70 70.00 165.00
C 67.45 161.64 63.70 156.02 66.00 151.00
C 64.92 151.54 64.07 151.59 63.00 152.00
C 62.33 152.45 61.78 153.48 61.00 154.00
C 50.57 164.04 50.29 184.91 60.30 195.70 C 70.31 206.49 87.57 212.00 102.00 212.00
C 87.90 209.28 68.79 203.58 62.00 189.00
C 87.33 191.13 113.89 194.69 137.10 189.10 C 160.31 183.50 185.63 178.22 211.00 178.00
C 210.76 176.12 208.45 176.54 208.00 175.00
C 207.50 175.00 206.47 175.12 206.00 175.00
C 204.70 174.66 196.51 168.69 198.00 167.00
C 196.87 164.32 199.78 163.42 201.00 162.00
C 203.55 159.04 210.48 149.15 213.00 154.00
C 213.42 154.80 213.49 156.09 214.00 157.00
C 217.70 160.72 225.96 158.85 230.00 157.00
C 236.87 153.86 238.73 149.35 233.00 144.00
C 230.04 141.92 223.46 139.87 222.00 136.00
C 218.11 133.22 209.78 132.64 207.00 129.00
C 207.00 129.00 206.27 129.25 206.00 129.00
C 205.72 131.37 205.71 133.73 205.00 136.00
C 200.61 150.08 185.47 166.23 171.00 170.00
C 170.53 170.12 169.49 169.94 169.00 170.00
C 164.64 173.15 155.69 174.76 150.00 174.00 C 144.31 173.24 131.66 175.42 127.33 173.67 C 123.00 171.92 131.66 159.03 133.00 158.00
C 133.11 157.53 133.00 157.00 133.00 157.00
C 133.33 153.42 136.54 150.70 138.00 148.00
C 140.61 140.22 144.70 133.66 148.00 126.00
C 147.81 126.24 146.50 126.00 146.00 126.00
C 143.33 127.28 141.42 128.01 138.00 128.00 Z"/>
</g>
<g fill="None" fill-opacity="0.0" stroke="#DF979D" stroke-opacity="1.00" stroke-width="0.3"><path d="
M 187.00 138.00 
C 189.87 133.68 190.92 131.05 192.00 126.00
C 191.92 126.19 190.06 125.84 190.00 126.00
C 188.60 129.83 188.68 134.11 187.00 138.00 Z"/>
</g>
<g fill="None" fill-opacity="0.0" stroke="#ADB8C9" stroke-opacity="1.00" stroke-width="0.3"><path d="
M 83.00 142.00 
C 83.21 141.54 84.82 141.31 85.00 141.00
C 86.14 139.01 86.71 136.06 88.00 134.00
C 89.18 132.12 89.94 129.76 91.00 128.00
C 87.54 131.53 83.81 136.21 83.00 142.00 Z"/>
</g>
<g fill="None" fill-opacity="0.0" stroke="#90465F" stroke-opacity="1.00" stroke-width="0.3"><path d="
M 120.00 131.00 
C 125.40 130.48 130.25 129.28 135.00 128.00
C 134.58 128.18 133.50 128.03 133.00 128.00
C 127.84 127.64 124.26 130.01 120.00 131.00 Z"/>
</g>
<g fill="None" fill-opacity="0.0" stroke="#EBC4C6" stroke-opacity="1.00" stroke-width="0.3"><path d="
M 128.00 171.00 
C 129.01 176.27 143.90 171.27 149.00 173.00 C 154.10 174.73 163.94 170.64 169.00 170.00
C 169.49 169.94 170.53 170.12 171.00 170.00
C 184.22 161.91 198.74 151.03 205.00 136.00
C 205.71 133.73 205.72 131.37 206.00 129.00
C 203.28 136.86 198.12 144.94 192.75 151.75 C 187.38 158.57 181.05 161.94 174.08 166.08 C 167.11 170.23 166.70 169.47 161.02 171.02 C 155.35 172.57 148.47 172.61 144.00 172.00 C 139.53 171.39 129.44 174.40 128.00 171.00 Z"/>
</g>
<g fill="None" fill-opacity="0.0" stroke="#B3BBC9" stroke-opacity="1.00" stroke-width="0.3"><path d="
M 72.00 133.00 
C 70.41 135.47 70.75 137.34 70.00 140.00
C 71.60 136.94 73.47 133.54 75.00 130.00
C 74.39 130.92 72.64 132.01 72.00 133.00 Z"/>
</g>
<g fill="None" fill-opacity="0.0" stroke="#404E6E" stroke-opacity="1.00" stroke-width="0.3"><path d="
M 57.00 155.00 
C 58.76 153.83 61.03 152.76 63.00 152.00
C 64.07 151.59 64.92 151.54 66.00 151.00
C 66.16 150.92 68.00 150.01 68.00 150.00
C 68.15 146.01 68.98 143.61 70.00 140.00
C 70.75 137.34 70.41 135.47 72.00 133.00
C 71.47 133.37 67.35 138.23 64.25 142.25 C 61.15 146.27 59.30 150.96 57.00 155.00 Z"/>
</g>
<g fill="None" fill-opacity="0.0" stroke="#96A1AF" stroke-opacity="1.00" stroke-width="0.3"><path d="
M 235.00 167.00 
C 237.23 165.50 239.53 163.95 242.00 162.00
C 244.75 159.46 246.89 156.18 250.00 154.00
C 250.00 154.00 249.75 153.25 250.00 153.00
C 254.73 148.36 253.11 139.87 250.00 135.00
C 249.04 133.72 246.43 131.93 245.00 131.00
C 260.39 142.79 244.76 158.57 235.00 167.00 Z"/>
</g>
<g fill="None" fill-opacity="0.0" stroke="#7284A0" stroke-opacity="1.00" stroke-width="0.3"><path d="
M 85.00 141.00 
C 85.05 140.77 85.83 140.33 86.00 140.00
C 86.95 138.15 87.18 135.81 88.00 134.00
C 86.71 136.06 86.14 139.01 85.00 141.00 Z"/>
</g>
<g fill="None" fill-opacity="0.0" stroke="#D46A70" stroke-opacity="1.00" stroke-width="0.3"><path d="
M 171.00 170.00 
C 185.47 166.23 200.61 150.08 205.00 136.00
C 198.74 151.03 184.22 161.91 171.00 170.00 Z"/>
</g>
<g fill="None" fill-opacity="0.0" stroke="#DE9BA1" stroke-opacity="1.00" stroke-width="0.3"><path d="
M 233.00 144.00 
C 229.86 141.07 226.53 138.69 223.00 136.00
C 223.00 136.00 222.27 136.25 222.00 136.00
C 223.46 139.87 230.04 141.92 233.00 144.00 Z"/>
</g>
<g fill="None" fill-opacity="0.0" stroke="#E0858B" stroke-opacity="1.00" stroke-width="0.3"><path d="
M 83.00 142.00 
C 82.10 148.47 83.60 155.90 89.00 160.00
C 96.16 163.58 107.16 160.25 113.00 157.00
C 99.57 161.77 80.52 161.20 85.00 141.00
C 84.82 141.31 83.21 141.54 83.00 142.00 Z"/>
</g>
<g fill="None" fill-opacity="0.0" stroke="#E38B90" stroke-opacity="1.00" stroke-width="0.3"><path d="
M 133.00 157.00 
C 134.30 156.00 136.37 153.35 137.00 152.00
C 137.32 150.63 137.57 149.29 138.00 148.00
C 136.54 150.70 133.33 153.42 133.00 157.00 Z"/>
</g>
<g fill="None" fill-opacity="0.0" stroke="#D67177" stroke-opacity="1.00" stroke-width="0.3"><path d="
M 66.00 151.00 
C 63.70 156.02 67.45 161.64 70.00 165.00
C 67.43 160.44 67.80 155.30 68.00 150.00
C 68.00 150.01 66.16 150.92 66.00 151.00 Z"/>
</g>
<g fill="None" fill-opacity="0.0" stroke="#523948" stroke-opacity="1.00" stroke-width="0.3"><path d="
M 57.00 155.00 
C 53.71 157.19 53.76 158.39 53.00 162.00
C 54.41 157.87 57.42 156.36 61.00 154.00
C 61.78 153.48 62.33 152.45 63.00 152.00
C 61.03 152.76 58.76 153.83 57.00 155.00 Z"/>
</g>
<g fill="None" fill-opacity="0.0" stroke="#DC7D82" stroke-opacity="1.00" stroke-width="0.3"><path d="
M 119.00 154.00 
C 122.48 154.19 117.88 160.33 117.00 162.00
C 115.69 164.49 114.49 168.09 112.00 170.00
C 118.66 168.22 121.40 158.51 122.00 152.00
C 120.24 151.09 119.87 153.58 119.00 154.00 Z"/>
</g>
<g fill="None" fill-opacity="0.0" stroke="#F3D5D7" stroke-opacity="1.00" stroke-width="0.3"><path d="
M 133.00 157.00 
C 133.00 157.00 133.11 157.53 133.00 158.00
C 132.34 160.80 131.20 164.37 130.00 167.00
C 133.33 162.12 135.63 157.81 137.00 152.00
C 136.37 153.35 134.30 156.00 133.00 157.00 Z"/>
</g>
<g fill="None" fill-opacity="0.0" stroke="#E6999E" stroke-opacity="1.00" stroke-width="0.3"><path d="
M 149.00 153.00 
C 147.77 154.79 148.15 157.85 148.00 160.00
C 154.54 159.11 163.34 162.32 168.00 157.00
C 161.81 157.52 155.25 161.02 149.00 158.00
C 149.43 155.90 150.36 154.00 151.00 152.00
C 151.04 151.94 149.13 152.90 149.00 153.00 Z"/>
</g>
<g fill="None" fill-opacity="0.0" stroke="#DD9195" stroke-opacity="1.00" stroke-width="0.3"><path d="
M 201.00 162.00 
C 203.06 159.96 205.75 158.42 208.00 157.00
C 209.21 156.00 210.96 151.61 213.00 154.00
C 210.48 149.15 203.55 159.04 201.00 162.00 Z"/>
</g>
<g fill="None" fill-opacity="0.0" stroke="#F7E2E3" stroke-opacity="1.00" stroke-width="0.3"><path d="
M 169.00 157.00 
C 169.00 157.00 168.50 156.99 168.00 157.00
C 163.34 162.32 154.54 159.11 148.00 160.00
C 148.15 157.85 147.77 154.79 149.00 153.00
C 136.05 163.20 168.80 164.19 169.00 157.00 Z"/>
</g>
<g fill="None" fill-opacity="0.0" stroke="#ECC7CA" stroke-opacity="1.00" stroke-width="0.3"><path d="
M 208.00 157.00 
C 209.67 156.56 210.34 154.54 212.00 154.00
C 211.66 165.20 225.52 160.46 226.00 160.00
C 222.07 160.97 216.05 160.70 214.00 157.00
C 213.49 156.09 213.42 154.80 213.00 154.00
C 210.96 151.61 209.21 156.00 208.00 157.00 Z"/>
</g>
<g fill="None" fill-opacity="0.0" stroke="#72353C" stroke-opacity="1.00" stroke-width="0.3"><path d="
M 53.00 162.00 
C 50.76 172.64 51.31 184.71 57.00 194.00
C 62.03 200.97 71.15 205.46 78.00 209.00
C 88.87 214.62 114.59 216.85 126.00 212.00
C 118.00 212.00 110.00 212.00 102.00 212.00
C 87.57 212.00 70.31 206.49 60.30 195.70 C 50.29 184.91 50.57 164.04 61.00 154.00
C 57.42 156.36 54.41 157.87 53.00 162.00 Z"/>
</g>
<g fill="None" fill-opacity="0.0" stroke="#F2CCCE" stroke-opacity="1.00" stroke-width="0.3"><path d="
M 113.00 157.00 
C 107.16 160.25 96.16 163.58 89.00 160.00
C 97.74 165.05 110.40 161.12 118.00 157.00
C 118.13 158.82 117.44 160.37 117.00 162.00
C 117.88 160.33 122.48 154.19 119.00 154.00
C 116.86 155.04 115.24 156.20 113.00 157.00 Z"/>
</g>
<g fill="None" fill-opacity="0.0" stroke="#6B7074" stroke-opacity="1.00" stroke-width="0.3"><path d="
M 242.00 162.00 
C 244.40 160.11 249.64 156.94 250.00 154.00
C 246.89 156.18 244.75 159.46 242.00 162.00 Z"/>
</g>
<g fill="None" fill-opacity="0.0" stroke="#CD686D" stroke-opacity="1.00" stroke-width="0.3"><path d="
M 226.00 160.00 
C 227.46 159.64 228.75 157.81 230.00 157.00
C 225.96 158.85 217.70 160.72 214.00 157.00
C 216.05 160.70 222.07 160.97 226.00 160.00 Z"/>
</g>
<g fill="None" fill-opacity="0.0" stroke="#CC6C71" stroke-opacity="1.00" stroke-width="0.3"><path d="
M 169.00 170.00 
C 163.94 170.64 154.10 174.73 149.00 173.00 C 143.90 171.27 129.01 176.27 128.00 171.00
C 127.70 169.44 129.21 168.16 130.00 167.00
C 131.20 164.37 132.34 160.80 133.00 158.00
C 131.66 159.03 123.00 171.92 127.33 173.67 C 131.66 175.42 144.31 173.24 150.00 174.00 C 155.69 174.76 164.64 173.15 169.00 170.00 Z"/>
</g>
<g fill="None" fill-opacity="0.0" stroke="#C3646A" stroke-opacity="1.00" stroke-width="0.3"><path d="
M 206.00 175.00 
C 203.22 173.30 201.81 170.29 200.00 168.00
C 199.67 167.73 198.20 167.48 198.00 167.00
C 196.51 168.69 204.70 174.66 206.00 175.00 Z"/>
</g>
<g fill="None" fill-opacity="0.0" stroke="#E7C6C8" stroke-opacity="1.00" stroke-width="0.3"><path d="
M 206.00 175.00 
C 206.47 175.12 207.50 175.00 208.00 175.00
C 212.33 175.00 216.67 175.00 221.00 175.00
C 218.23 172.95 212.65 174.01 209.01 172.99 C 205.37 171.97 202.80 170.30 200.00 168.00
C 201.81 170.29 203.22 173.30 206.00 175.00 Z"/>
</g>
<g fill="None" fill-opacity="0.0" stroke="#962D33" stroke-opacity="1.00" stroke-width="0.3"><path d="
M 102.00 212.00 
C 110.00 212.00 118.00 212.00 126.00 212.00
C 126.50 212.00 127.50 212.00 128.00 212.00
C 137.66 207.89 152.22 205.40 163.00 204.00
C 170.11 203.07 178.91 198.73 185.00 196.00 C 191.09 193.26 200.63 191.89 204.92 186.92 C 209.20 181.95 220.01 180.58 222.00 175.00
C 222.00 175.00 221.50 175.00 221.00 175.00
C 216.67 175.00 212.33 175.00 208.00 175.00
C 208.45 176.54 210.76 176.12 211.00 178.00
C 185.63 178.22 160.31 183.50 137.10 189.10 C 113.89 194.69 87.33 191.13 62.00 189.00
C 68.79 203.58 87.90 209.28 102.00 212.00 Z"/>
</g>
<g fill="None" fill-opacity="0.0" stroke="#4F373E" stroke-opacity="1.00" stroke-width="0.3"><path d="
M 78.00 209.00 
C 71.15 205.46 62.03 200.97 57.00 194.00
C 61.82 201.87 70.09 206.33 78.00 209.00 Z"/>
</g>
<g fill="None" fill-opacity="0.0" stroke="#58343A" stroke-opacity="1.00" stroke-width="0.3"><path d="
M 128.00 212.00 
C 141.10 212.00 151.74 207.80 163.00 204.00
C 152.22 205.40 137.66 207.89 128.00 212.00 Z"/>
</g>
<g fill="None" fill-opacity="0.0" stroke="#585D62" stroke-opacity="1.00" stroke-width="0.3"><path d="
M 55.00 233.00 
C 58.21 231.41 63.59 234.19 67.00 233.00
C 67.00 234.67 67.00 236.33 67.00 238.00
C 70.02 235.45 66.73 231.54 64.00 231.00
C 72.48 226.94 67.71 217.75 60.01 218.01 C 52.30 218.27 48.30 228.57 57.00 231.00
C 56.80 232.34 55.43 231.87 55.00 233.00
M 62.00 220.00 
C 70.73 222.81 65.79 232.21 57.00 230.00
C 48.50 227.86 54.55 217.60 62.00 220.00 Z"/>
</g>
<g fill="None" fill-opacity="0.0" stroke="#96999C" stroke-opacity="1.00" stroke-width="0.3"><path d="
M 57.00 230.00 
C 49.96 227.13 56.24 219.21 62.00 220.00
C 54.55 217.60 48.50 227.86 57.00 230.00 Z"/>
</g>
<g fill="None" fill-opacity="0.0" stroke="#F0F0F0" stroke-opacity="1.00" stroke-width="0.3"><path d="
M 57.00 230.00 
C 65.79 232.21 70.73 222.81 62.00 220.00
C 56.24 219.21 49.96 227.13 57.00 230.00 Z"/>
</g>
<g fill="None" fill-opacity="0.0" stroke="#E6E7E8" stroke-opacity="1.00" stroke-width="0.3"><path d="
M 47.00 233.00 
C 48.67 220.38 27.26 220.53 20.25 228.25 C 13.24 235.97 27.13 245.41 33.00 250.00
C 29.40 256.37 21.28 251.20 16.00 251.00
C 13.85 263.95 30.80 262.43 39.30 260.30 C 47.81 258.18 51.11 245.21 39.75 241.25 C 28.38 237.30 35.44 227.60 47.00 233.00 Z"/>
</g>
<g fill="None" fill-opacity="0.0" stroke="#61666A" stroke-opacity="1.00" stroke-width="0.3"><path d="
M 110.00 228.00 
C 110.97 227.53 112.92 228.15 114.00 228.00
C 115.37 227.81 117.94 226.10 120.00 227.00
C 118.25 232.86 122.46 234.30 127.00 235.00
C 127.23 231.64 122.99 233.45 121.00 233.00
C 124.27 225.65 113.34 223.47 110.00 228.00 Z"/>
</g>
<g fill="None" fill-opacity="0.0" stroke="#A8AAAD" stroke-opacity="1.00" stroke-width="0.3"><path d="
M 114.00 228.00 
C 115.67 228.03 117.33 227.98 119.00 228.00
C 117.50 233.13 120.89 236.44 126.00 235.00
C 125.84 242.72 117.88 237.51 118.00 246.00 C 118.12 254.50 121.22 253.36 125.00 258.00
C 130.00 254.44 124.37 253.38 121.26 252.74 C 118.14 252.11 120.99 243.85 120.00 242.00
C 124.57 243.68 129.19 239.82 127.00 235.00
C 122.46 234.30 118.25 232.86 120.00 227.00
C 117.94 226.10 115.37 227.81 114.00 228.00 Z"/>
</g>
<g fill="None" fill-opacity="0.0" stroke="#F3F3F4" stroke-opacity="1.00" stroke-width="0.3"><path d="
M 109.00 232.00 
C 106.66 238.41 99.58 235.37 107.00 242.00
C 108.17 243.79 106.13 246.91 106.00 248.00
C 102.56 260.96 115.28 262.57 125.00 261.00
C 125.37 260.26 124.53 258.68 125.00 258.00
C 121.22 253.36 118.12 254.50 118.00 246.00 C 117.88 237.51 125.84 242.72 126.00 235.00
C 120.89 236.44 117.50 233.13 119.00 228.00
C 117.33 227.98 115.67 228.03 114.00 228.00
C 112.92 228.15 110.97 227.53 110.00 228.00
C 108.90 229.49 109.63 230.26 109.00 232.00 Z"/>
</g>
<g fill="None" fill-opacity="0.0" stroke="#8A8E91" stroke-opacity="1.00" stroke-width="0.3"><path d="
M 105.00 242.00 
C 105.50 241.98 106.85 241.77 107.00 242.00
C 99.58 235.37 106.66 238.41 109.00 232.00
C 103.48 231.97 100.64 236.72 102.00 242.00
C 103.00 241.96 104.00 242.05 105.00 242.00 Z"/>
</g>
<g fill="None" fill-opacity="0.0" stroke="#85898C" stroke-opacity="1.00" stroke-width="0.3"><path d="
M 53.00 249.00 
C 54.02 240.52 53.02 229.93 66.00 234.00
C 66.00 242.33 66.00 250.67 66.00 259.00
C 69.14 254.65 66.67 243.65 67.00 238.00
C 67.00 236.33 67.00 234.67 67.00 233.00
C 63.59 234.19 58.21 231.41 55.00 233.00
C 53.13 237.94 53.12 242.87 53.00 249.00 Z"/>
</g>
<g fill="None" fill-opacity="0.0" stroke="#E9EAEB" stroke-opacity="1.00" stroke-width="0.3"><path d="
M 82.00 250.00 
C 86.80 255.97 75.62 253.76 72.00 253.00
C 71.50 256.34 72.02 259.52 75.00 261.00
C 87.97 263.87 106.18 255.88 90.00 245.00
C 88.39 243.92 85.98 243.12 86.00 241.00
C 89.22 239.03 93.38 240.42 97.00 240.00
C 97.73 236.85 96.43 234.43 94.00 233.00
C 87.15 231.84 79.16 231.69 74.26 237.26 C 69.36 242.82 79.40 246.77 82.00 250.00 Z"/>
</g>
<g fill="None" fill-opacity="0.0" stroke="#8F9296" stroke-opacity="1.00" stroke-width="0.3"><path d="
M 90.00 245.00 
C 89.75 243.47 87.45 242.82 88.00 241.00
C 91.67 241.00 95.33 241.00 99.00 241.00
C 99.86 236.23 98.42 233.75 94.00 233.00
C 96.43 234.43 97.73 236.85 97.00 240.00
C 93.38 240.42 89.22 239.03 86.00 241.00
C 85.98 243.12 88.39 243.92 90.00 245.00 Z"/>
</g>
<g fill="None" fill-opacity="0.0" stroke="#EEEFEF" stroke-opacity="1.00" stroke-width="0.3"><path d="
M 133.00 239.00 
C 128.48 246.38 130.23 258.58 140.00 261.00
C 144.70 261.72 151.27 261.57 156.00 261.00
C 159.06 260.20 160.73 257.27 161.00 254.00
C 160.00 254.00 159.00 254.00 158.00 254.00
C 157.61 254.21 156.50 254.00 156.00 254.00
C 153.57 255.03 143.93 256.72 143.00 252.00
C 143.00 250.67 143.00 249.33 143.00 248.00
C 150.00 248.00 157.00 248.00 164.00 248.00
C 167.34 230.00 141.31 228.89 133.00 239.00
M 153.00 241.00 
C 153.11 241.48 153.08 242.51 153.00 243.00
C 152.38 246.87 140.78 245.93 142.34 241.32 C 143.89 236.71 152.04 236.66 153.00 241.00 Z"/>
</g>
<g fill="None" fill-opacity="0.0" stroke="#989B9E" stroke-opacity="1.00" stroke-width="0.3"><path d="
M 169.00 246.00 
C 169.61 242.61 172.54 238.35 171.00 234.00
C 175.56 232.84 180.97 235.47 184.00 235.00
C 181.35 234.98 174.82 230.73 171.10 233.10 C 167.38 235.47 169.00 242.04 169.00 246.00 Z"/>
</g>
<g fill="None" fill-opacity="0.0" stroke="#EFF0F0" stroke-opacity="1.00" stroke-width="0.3"><path d="
M 184.00 235.00 
C 180.97 235.47 175.56 232.84 171.00 234.00
C 172.54 238.35 169.61 242.61 169.00 246.00
C 169.00 251.00 169.00 256.00 169.00 261.00
C 172.21 259.98 176.94 262.36 180.00 261.00
C 180.19 260.92 180.00 259.50 180.00 259.00
C 180.00 254.61 181.33 251.51 182.00 248.00
C 182.00 246.79 181.72 245.17 182.00 244.00
C 183.52 237.59 189.68 242.58 189.99 246.01 C 190.30 249.44 187.49 259.27 190.00 261.00
C 193.22 262.56 199.64 260.92 201.00 259.00
C 202.70 255.49 200.49 249.53 202.00 246.00
C 202.31 245.29 202.63 243.81 203.00 243.00
C 204.29 240.17 208.28 240.41 209.75 243.25 C 211.22 246.09 209.17 250.84 209.00 253.00
C 209.14 259.81 211.98 263.85 220.00 261.00
C 222.63 259.14 220.80 251.07 221.99 247.99 C 223.19 244.92 222.36 237.36 220.00 235.00
C 213.94 230.24 206.05 234.10 200.00 236.00
C 196.76 229.68 188.68 234.17 184.00 235.00 Z"/>
</g>
<g fill="None" fill-opacity="0.0" stroke="#8C8F93" stroke-opacity="1.00" stroke-width="0.3"><path d="
M 233.00 235.00 
C 233.32 234.77 239.65 233.06 240.00 233.00
C 237.30 233.15 234.74 232.75 233.00 235.00 Z"/>
</g>
<g fill="None" fill-opacity="0.0" stroke="#E9E9EA" stroke-opacity="1.00" stroke-width="0.3"><path d="
M 233.00 235.00 
C 232.03 236.25 232.32 236.30 232.00 238.00
C 232.73 241.75 236.41 239.23 239.00 239.00
C 240.60 238.67 247.41 235.99 248.00 240.00
C 248.22 241.48 247.23 242.48 246.00 243.00
C 239.90 245.59 230.51 242.97 227.00 251.00
C 226.15 254.43 228.75 259.97 232.00 261.00
C 236.00 261.00 240.00 261.00 244.00 261.00
C 246.10 255.84 243.73 254.78 239.00 254.00
C 239.99 250.05 244.64 250.39 248.00 250.00
C 248.71 253.95 246.52 257.13 247.00 261.00
C 251.66 260.50 257.50 262.53 260.00 259.00
C 261.05 256.83 260.00 251.46 260.00 249.00
C 260.00 245.47 260.53 241.48 260.00 238.00
C 259.87 237.12 259.68 235.68 259.00 235.00
C 255.43 231.42 244.77 232.74 240.00 233.00
C 239.65 233.06 233.32 234.77 233.00 235.00 Z"/>
</g>
<g fill="None" fill-opacity="0.0" stroke="#E6E7E8" stroke-opacity="1.00" stroke-width="0.3"><path d="
M 276.00 250.00 
C 276.84 250.69 277.90 251.05 279.00 251.00
C 278.17 256.58 270.61 253.16 267.00 253.00
C 266.85 256.96 267.02 259.95 271.00 261.00
C 279.02 261.97 286.63 262.15 291.67 255.67 C 296.71 249.19 280.73 244.71 281.00 242.00
C 281.42 237.89 289.09 240.95 292.00 240.00
C 297.03 232.60 284.13 232.62 280.00 233.00 C 275.87 233.38 267.89 233.72 268.00 240.00 C 268.12 246.27 271.89 246.64 276.00 250.00 Z"/>
</g>
<g fill="None" fill-opacity="0.0" stroke="#EAEAEB" stroke-opacity="1.00" stroke-width="0.3"><path d="
M 53.00 249.00 
C 53.73 253.28 51.68 256.85 52.00 261.00
C 56.46 260.06 63.04 263.10 66.00 259.00
C 66.00 250.67 66.00 242.33 66.00 234.00
C 53.02 229.93 54.02 240.52 53.00 249.00 Z"/>
</g>
<g fill="None" fill-opacity="0.0" stroke="#7F8387" stroke-opacity="1.00" stroke-width="0.3"><path d="
M 220.00 261.00 
C 225.62 259.00 224.47 238.33 220.00 235.00
C 222.36 237.36 223.19 244.92 221.99 247.99 C 220.80 251.07 222.63 259.14 220.00 261.00 Z"/>
</g>
<g fill="None" fill-opacity="0.0" stroke="#666A6F" stroke-opacity="1.00" stroke-width="0.3"><path d="
M 260.00 238.00 
C 260.73 240.14 261.01 242.27 261.00 245.00
C 261.49 241.37 263.09 237.86 259.00 235.00
C 259.68 235.68 259.87 237.12 260.00 238.00 Z"/>
</g>
<g fill="None" fill-opacity="0.0" stroke="#BCBEC0" stroke-opacity="1.00" stroke-width="0.3"><path d="
M 153.00 243.00 
C 151.32 245.18 144.53 244.23 143.00 243.00
C 143.60 241.65 144.73 240.61 146.00 240.00
C 147.72 239.17 151.66 238.27 153.00 241.00
C 152.04 236.66 143.89 236.71 142.34 241.32 C 140.78 245.93 152.38 246.87 153.00 243.00 Z"/>
</g>
<g fill="None" fill-opacity="0.0" stroke="#828589" stroke-opacity="1.00" stroke-width="0.3"><path d="
M 246.00 243.00 
C 247.23 242.48 248.22 241.48 248.00 240.00
C 247.37 238.21 240.45 238.87 239.00 239.00
C 236.41 239.23 232.73 241.75 232.00 238.00
C 230.53 238.27 231.11 240.00 231.00 241.00
C 236.47 241.10 241.39 239.29 247.00 240.00
C 246.94 240.86 246.83 242.45 246.00 243.00 Z"/>
</g>
<g fill="None" fill-opacity="0.0" stroke="#AEB1B3" stroke-opacity="1.00" stroke-width="0.3"><path d="
M 239.00 239.00 
C 240.45 238.87 247.37 238.21 248.00 240.00
C 247.41 235.99 240.60 238.67 239.00 239.00 Z"/>
</g>
<g fill="None" fill-opacity="0.0" stroke="#9CA0A2" stroke-opacity="1.00" stroke-width="0.3"><path d="
M 260.00 249.00 
C 260.00 248.96 261.00 249.00 261.00 249.00
C 261.00 247.67 260.99 246.33 261.00 245.00
C 261.01 242.27 260.73 240.14 260.00 238.00
C 260.53 241.48 260.00 245.47 260.00 249.00 Z"/>
</g>
<g fill="None" fill-opacity="0.0" stroke="#8D9194" stroke-opacity="1.00" stroke-width="0.3"><path d="
M 140.00 261.00 
C 130.23 258.58 128.48 246.38 133.00 239.00
C 126.85 246.49 128.63 259.27 140.00 261.00 Z"/>
</g>
<g fill="None" fill-opacity="0.0" stroke="#8C8F93" stroke-opacity="1.00" stroke-width="0.3"><path d="
M 146.00 240.00 
C 148.51 239.34 150.71 240.17 152.00 242.00
C 149.90 244.08 145.85 242.50 143.00 243.00
C 144.53 244.23 151.32 245.18 153.00 243.00
C 153.08 242.51 153.11 241.48 153.00 241.00
C 151.66 238.27 147.72 239.17 146.00 240.00 Z"/>
</g>
<g fill="None" fill-opacity="0.0" stroke="#464C51" stroke-opacity="1.00" stroke-width="0.3"><path d="
M 143.00 243.00 
C 145.85 242.50 149.90 244.08 152.00 242.00
C 150.71 240.17 148.51 239.34 146.00 240.00
C 144.73 240.61 143.60 241.65 143.00 243.00 Z"/>
</g>
<g fill="None" fill-opacity="0.0" stroke="#878B8E" stroke-opacity="1.00" stroke-width="0.3"><path d="
M 281.00 242.00 
C 283.59 239.18 289.95 243.01 292.00 240.00
C 289.09 240.95 281.42 237.89 281.00 242.00 Z"/>
</g>
<g fill="None" fill-opacity="0.0" stroke="#7F8287" stroke-opacity="1.00" stroke-width="0.3"><path d="
M 182.00 244.00 
C 182.87 241.62 188.26 240.92 188.92 244.08 C 189.57 247.25 188.19 251.56 188.00 254.00
C 188.07 257.31 187.20 259.65 190.00 261.00
C 187.49 259.27 190.30 249.44 189.99 246.01 C 189.68 242.58 183.52 237.59 182.00 244.00 Z"/>
</g>
<g fill="None" fill-opacity="0.0" stroke="#96999C" stroke-opacity="1.00" stroke-width="0.3"><path d="
M 203.00 243.00 
C 210.43 239.12 208.91 248.36 209.00 253.00
C 209.17 250.84 211.22 246.09 209.75 243.25 C 208.28 240.41 204.29 240.17 203.00 243.00 Z"/>
</g>
<g fill="None" fill-opacity="0.0" stroke="#5F6468" stroke-opacity="1.00" stroke-width="0.3"><path d="
M 106.00 248.00 
C 106.13 246.91 108.17 243.79 107.00 242.00
C 106.85 241.77 105.50 241.98 105.00 242.00
C 104.83 242.46 105.95 246.99 106.00 248.00 Z"/>
</g>
<g fill="None" fill-opacity="0.0" stroke="#565B60" stroke-opacity="1.00" stroke-width="0.3"><path d="
M 182.00 244.00 
C 181.72 245.17 182.00 246.79 182.00 248.00
C 182.00 249.33 182.00 250.67 182.00 252.00
C 184.23 249.43 181.84 241.31 188.00 243.00
C 188.05 246.67 187.93 250.33 188.00 254.00
C 188.19 251.56 189.57 247.25 188.92 244.08 C 188.26 240.92 182.87 241.62 182.00 244.00 Z"/>
</g>
<g fill="None" fill-opacity="0.0" stroke="#8C9093" stroke-opacity="1.00" stroke-width="0.3"><path d="
M 201.00 259.00 
C 203.41 255.59 201.08 250.18 202.00 246.00
C 200.49 249.53 202.70 255.49 201.00 259.00 Z"/>
</g>
<g fill="None" fill-opacity="0.0" stroke="#A5A8AA" stroke-opacity="1.00" stroke-width="0.3"><path d="
M 180.00 259.00 
C 180.51 257.32 181.25 254.60 182.00 253.00
C 182.00 253.00 182.00 252.50 182.00 252.00
C 182.00 250.67 182.00 249.33 182.00 248.00
C 181.33 251.51 180.00 254.61 180.00 259.00 Z"/>
</g>
<g fill="None" fill-opacity="0.0" stroke="#696D72" stroke-opacity="1.00" stroke-width="0.3"><path d="
M 260.00 259.00 
C 261.74 256.54 261.00 252.25 261.00 249.00
C 261.00 249.00 260.00 248.96 260.00 249.00
C 260.00 251.46 261.05 256.83 260.00 259.00 Z"/>
</g>
<g fill="None" fill-opacity="0.0" stroke="#7A7E83" stroke-opacity="1.00" stroke-width="0.3"><path d="
M 75.00 261.00 
C 72.02 259.52 71.50 256.34 72.00 253.00
C 75.62 253.76 86.80 255.97 82.00 250.00
C 82.03 251.14 83.53 251.72 83.00 253.00
C 75.57 247.63 64.35 258.64 75.00 261.00 Z"/>
</g>
<g fill="None" fill-opacity="0.0" stroke="#777B7F" stroke-opacity="1.00" stroke-width="0.3"><path d="
M 266.00 253.00 
C 266.00 252.96 267.00 253.00 267.00 253.00
C 270.61 253.16 278.17 256.58 279.00 251.00
C 277.90 251.05 276.84 250.69 276.00 250.00
C 276.03 251.14 277.53 251.72 277.00 253.00
C 273.49 254.52 268.55 250.37 266.00 253.00 Z"/>
</g>
<g fill="None" fill-opacity="0.0" stroke="#5B6065" stroke-opacity="1.00" stroke-width="0.3"><path d="
M 146.00 253.00 
C 148.98 254.01 152.40 254.00 156.00 254.00
C 156.50 254.00 157.61 254.21 158.00 254.00
C 159.08 253.41 160.32 252.48 162.00 253.00
C 162.62 254.95 160.80 256.13 161.00 258.00
C 168.28 247.39 150.88 253.09 146.00 253.00 Z"/>
</g>
<g fill="None" fill-opacity="0.0" stroke="#898C90" stroke-opacity="1.00" stroke-width="0.3"><path d="
M 232.00 261.00 
C 228.75 259.97 226.15 254.43 227.00 251.00
C 225.33 254.81 227.03 259.86 232.00 261.00 Z"/>
</g>
<g fill="None" fill-opacity="0.0" stroke="#ABADB0" stroke-opacity="1.00" stroke-width="0.3"><path d="
M 156.00 254.00 
C 152.40 254.00 148.98 254.01 146.00 253.00
C 145.16 252.71 143.58 252.95 143.00 252.00
C 143.93 256.72 153.57 255.03 156.00 254.00 Z"/>
</g>
<g fill="None" fill-opacity="0.0" stroke="#989B9E" stroke-opacity="1.00" stroke-width="0.3"><path d="
M 158.00 254.00 
C 159.00 254.00 160.00 254.00 161.00 254.00
C 160.73 257.27 159.06 260.20 156.00 261.00
C 160.62 260.44 158.93 261.02 161.00 258.00
C 160.80 256.13 162.62 254.95 162.00 253.00
C 160.32 252.48 159.08 253.41 158.00 254.00 Z"/>
</g>
<g fill="None" fill-opacity="0.0" stroke="#74787C" stroke-opacity="1.00" stroke-width="0.3"><path d="
M 180.00 259.00 
C 180.00 259.50 180.19 260.92 180.00 261.00
C 183.13 261.96 182.00 254.61 182.00 253.00
C 181.25 254.60 180.51 257.32 180.00 259.00 Z"/>
</g>
<g fill="None" fill-opacity="0.0" stroke="#9C9FA2" stroke-opacity="1.00" stroke-width="0.3"><path d="
M 271.00 261.00 
C 267.02 259.95 266.85 256.96 267.00 253.00
C 267.00 253.00 266.00 252.96 266.00 253.00
C 266.00 255.67 266.00 258.33 266.00 261.00
C 267.65 261.15 269.36 260.80 271.00 261.00 Z"/>
</g>
<g fill="#1275BE" fill-opacity="1.00" stroke="None">
<path d="
M 0.00 298.00 
L 1.00 298.00
C 1.00 198.67 1.00 99.33 1.00 0.00
L 0.00 0.00
L 0.00 298.00 Z"/>
</g>
<g fill="#0D99FF" fill-opacity="1.00" stroke="None">
<path d="
M 1.00 298.00 
L 306.00 298.00
L 306.00 297.00
C 204.67 297.00 103.33 297.00 2.00 297.00
C 2.00 198.33 2.00 99.67 2.00 1.00
C 103.33 1.00 204.67 1.00 306.00 1.00
L 306.00 0.00
L 1.00 0.00
C 1.00 99.33 1.00 198.67 1.00 298.00 Z"/>
</g>
<g fill="#1C649A" fill-opacity="1.00" stroke="None">
<path d="
M 306.00 297.00 
L 306.00 296.00
C 205.00 296.00 104.00 296.00 3.00 296.00
C 3.00 198.00 3.00 100.00 3.00 2.00
C 104.00 2.00 205.00 2.00 306.00 2.00
L 306.00 1.00
C 204.67 1.00 103.33 1.00 2.00 1.00
C 2.00 99.67 2.00 198.33 2.00 297.00
C 103.33 297.00 204.67 297.00 306.00 297.00 Z"/>
</g>
<g fill="#343A40" fill-opacity="1.00" stroke="None">
<path d="
M 306.00 296.00 
L 306.00 2.00
C 205.00 2.00 104.00 2.00 3.00 2.00
C 3.00 100.00 3.00 198.00 3.00 296.00
C 104.00 296.00 205.00 296.00 306.00 296.00
M 250.00 153.00 
C 249.75 153.25 250.00 154.00 250.00 154.00
C 249.64 156.94 244.40 160.11 242.00 162.00
C 239.53 163.95 237.23 165.50 235.00 167.00
C 231.98 169.61 226.00 175.14 222.00 175.00
C 220.01 180.58 209.20 181.95 204.92 186.92 C 200.63 191.89 191.09 193.26 185.00 196.00 C 178.91 198.73 170.11 203.07 163.00 204.00
C 151.74 207.80 141.10 212.00 128.00 212.00
C 127.50 212.00 126.50 212.00 126.00 212.00
C 114.59 216.85 88.87 214.62 78.00 209.00
C 70.09 206.33 61.82 201.87 57.00 194.00
C 51.31 184.71 50.76 172.64 53.00 162.00
C 53.76 158.39 53.71 157.19 57.00 155.00
C 59.30 150.96 61.15 146.27 64.25 142.25 C 67.35 138.23 71.47 133.37 72.00 133.00
C 72.64 132.01 74.39 130.92 75.00 130.00
C 79.70 119.10 93.04 106.65 103.00 102.00
C 105.70 100.19 107.48 97.81 111.00 97.00
C 112.91 91.63 121.66 90.63 125.68 86.68 C 129.70 82.73 136.14 80.22 142.07 78.07 C 148.00 75.93 154.48 71.85 161.00 71.00
C 191.22 60.26 235.73 47.49 266.70 68.30 C 297.66 89.11 273.54 136.56 250.00 153.00
M 67.00 238.00 
C 66.67 243.65 69.14 254.65 66.00 259.00
C 63.04 263.10 56.46 260.06 52.00 261.00
C 51.68 256.85 53.73 253.28 53.00 249.00
C 53.12 242.87 53.13 237.94 55.00 233.00
C 55.43 231.87 56.80 232.34 57.00 231.00
C 48.30 228.57 52.30 218.27 60.01 218.01 C 67.71 217.75 72.48 226.94 64.00 231.00
C 66.73 231.54 70.02 235.45 67.00 238.00
M 47.00 233.00 
C 35.44 227.60 28.38 237.30 39.75 241.25 C 51.11 245.21 47.81 258.18 39.30 260.30 C 30.80 262.43 13.85 263.95 16.00 251.00
C 21.28 251.20 29.40 256.37 33.00 250.00
C 27.13 245.41 13.24 235.97 20.25 228.25 C 27.26 220.53 48.67 220.38 47.00 233.00
M 127.00 235.00 
C 129.19 239.82 124.57 243.68 120.00 242.00
C 120.99 243.85 118.14 252.11 121.26 252.74 C 124.37 253.38 130.00 254.44 125.00 258.00
C 124.53 258.68 125.37 260.26 125.00 261.00
C 115.28 262.57 102.56 260.96 106.00 248.00
C 105.95 246.99 104.83 242.46 105.00 242.00
C 104.00 242.05 103.00 241.96 102.00 242.00
C 100.64 236.72 103.48 231.97 109.00 232.00
C 109.63 230.26 108.90 229.49 110.00 228.00
C 113.34 223.47 124.27 225.65 121.00 233.00
C 122.99 233.45 127.23 231.64 127.00 235.00
M 90.00 245.00 
C 106.18 255.88 87.97 263.87 75.00 261.00
C 64.35 258.64 75.57 247.63 83.00 253.00
C 83.53 251.72 82.03 251.14 82.00 250.00
C 79.40 246.77 69.36 242.82 74.26 237.26 C 79.16 231.69 87.15 231.84 94.00 233.00
C 98.42 233.75 99.86 236.23 99.00 241.00
C 95.33 241.00 91.67 241.00 88.00 241.00
C 87.45 242.82 89.75 243.47 90.00 245.00
M 143.00 252.00 
C 143.58 252.95 145.16 252.71 146.00 253.00
C 150.88 253.09 168.28 247.39 161.00 258.00
C 158.93 261.02 160.62 260.44 156.00 261.00
C 151.27 261.57 144.70 261.72 140.00 261.00
C 128.63 259.27 126.85 246.49 133.00 239.00
C 141.31 228.89 167.34 230.00 164.00 248.00
C 157.00 248.00 150.00 248.00 143.00 248.00
C 143.00 249.33 143.00 250.67 143.00 252.00
M 184.00 235.00 
C 188.68 234.17 196.76 229.68 200.00 236.00
C 206.05 234.10 213.94 230.24 220.00 235.00
C 224.47 238.33 225.62 259.00 220.00 261.00
C 211.98 263.85 209.14 259.81 209.00 253.00
C 208.91 248.36 210.43 239.12 203.00 243.00
C 202.63 243.81 202.31 245.29 202.00 246.00
C 201.08 250.18 203.41 255.59 201.00 259.00
C 199.64 260.92 193.22 262.56 190.00 261.00
C 187.20 259.65 188.07 257.31 188.00 254.00
C 187.93 250.33 188.05 246.67 188.00 243.00
C 181.84 241.31 184.23 249.43 182.00 252.00
C 182.00 252.50 182.00 253.00 182.00 253.00
C 182.00 254.61 183.13 261.96 180.00 261.00
C 176.94 262.36 172.21 259.98 169.00 261.00
C 169.00 256.00 169.00 251.00 169.00 246.00
C 169.00 242.04 167.38 235.47 171.10 233.10 C 174.82 230.73 181.35 234.98 184.00 235.00
M 259.00 235.00 
C 263.09 237.86 261.49 241.37 261.00 245.00
C 260.99 246.33 261.00 247.67 261.00 249.00
C 261.00 252.25 261.74 256.54 260.00 259.00
C 257.50 262.53 251.66 260.50 247.00 261.00
C 246.52 257.13 248.71 253.95 248.00 250.00
C 244.64 250.39 239.99 250.05 239.00 254.00
C 243.73 254.78 246.10 255.84 244.00 261.00
C 240.00 261.00 236.00 261.00 232.00 261.00
C 227.03 259.86 225.33 254.81 227.00 251.00
C 230.51 242.97 239.90 245.59 246.00 243.00
C 246.83 242.45 246.94 240.86 247.00 240.00
C 241.39 239.29 236.47 241.10 231.00 241.00
C 231.11 240.00 230.53 238.27 232.00 238.00
C 232.32 236.30 232.03 236.25 233.00 235.00
C 234.74 232.75 237.30 233.15 240.00 233.00
C 244.77 232.74 255.43 231.42 259.00 235.00
M 292.00 240.00 
C 289.95 243.01 283.59 239.18 281.00 242.00
C 280.73 244.71 296.71 249.19 291.67 255.67 C 286.63 262.15 279.02 261.97 271.00 261.00
C 269.36 260.80 267.65 261.15 266.00 261.00
C 266.00 258.33 266.00 255.67 266.00 253.00
C 268.55 250.37 273.49 254.52 277.00 253.00
C 277.53 251.72 276.03 251.14 276.00 250.00
C 271.89 246.64 268.12 246.27 268.00 240.00 C 267.89 233.72 275.87 233.38 280.00 233.00 C 284.13 232.62 297.03 232.60 292.00 240.00 Z"/>
</g>
<g fill="#33486D" fill-opacity="1.00" stroke="None">
<path d="
M 161.00 71.00 
C 170.88 69.71 179.58 66.21 190.00 66.00
C 216.54 65.47 256.40 54.48 271.00 84.00
C 257.47 82.30 244.56 77.74 231.00 79.00
C 234.25 79.62 238.24 81.83 242.00 82.00
C 239.79 85.03 234.09 84.65 231.00 84.00
C 228.62 90.08 239.36 90.68 239.00 96.00
C 241.86 96.35 244.39 95.73 247.00 95.00
C 252.30 94.53 256.98 94.83 261.00 97.00
C 264.96 99.14 273.66 107.02 265.00 110.00
C 264.55 110.15 263.48 109.91 263.00 110.00
C 262.42 111.28 263.13 111.04 262.00 112.00
C 261.02 112.83 259.98 112.49 259.00 113.00
C 255.74 114.70 254.13 114.92 253.00 110.00
C 250.66 109.18 246.50 110.00 244.00 110.00
C 244.49 112.06 241.14 112.83 240.00 114.00
C 243.04 121.09 244.24 129.26 250.00 135.00
C 253.11 139.87 254.73 148.36 250.00 153.00
C 273.54 136.56 297.66 89.11 266.70 68.30 C 235.73 47.49 191.22 60.26 161.00 71.00 Z"/>
</g>
<g fill="#4B6083" fill-opacity="1.00" stroke="None">
<path d="
M 190.00 66.00 
C 186.98 66.76 183.80 70.56 180.00 70.00
C 195.61 76.25 213.75 77.35 231.00 79.00
C 244.56 77.74 257.47 82.30 271.00 84.00
C 256.40 54.48 216.54 65.47 190.00 66.00 Z"/>
</g>
<g fill="#30537E" fill-opacity="1.00" stroke="None">
<path d="
M 161.00 71.00 
C 154.48 71.85 148.00 75.93 142.07 78.07 C 136.14 80.22 129.70 82.73 125.68 86.68 C 121.66 90.63 112.91 91.63 111.00 97.00
C 111.47 96.89 112.00 97.00 112.00 97.00
C 112.50 97.00 113.50 97.00 114.00 97.00
C 116.19 94.93 116.81 95.24 120.00 95.00
C 129.28 92.18 136.10 86.65 145.69 82.69 C 155.29 78.74 168.41 77.78 179.00 78.00 C 189.59 78.22 197.83 86.36 206.75 88.25 C 215.66 90.15 220.30 105.47 229.00 105.00
C 233.62 101.20 239.78 99.54 245.00 97.00
C 245.45 96.78 246.60 95.14 247.00 95.00
C 244.39 95.73 241.86 96.35 239.00 96.00
C 239.36 90.68 228.62 90.08 231.00 84.00
C 234.09 84.65 239.79 85.03 242.00 82.00
C 238.24 81.83 234.25 79.62 231.00 79.00
C 213.75 77.35 195.61 76.25 180.00 70.00
C 183.80 70.56 186.98 66.76 190.00 66.00
C 179.58 66.21 170.88 69.71 161.00 71.00 Z"/>
</g>
<g fill="#2F6292" fill-opacity="1.00" stroke="None">
<path d="
M 120.00 95.00 
C 126.75 94.48 142.87 93.50 146.00 101.00
C 149.24 102.44 146.49 104.50 144.00 104.00
C 142.69 108.70 141.50 113.24 138.00 117.00
C 123.63 102.09 99.39 111.86 91.00 128.00
C 89.94 129.76 89.18 132.12 88.00 134.00
C 87.18 135.81 86.95 138.15 86.00 140.00
C 95.87 136.01 109.29 132.04 120.00 131.00
C 124.26 130.01 127.84 127.64 133.00 128.00
C 135.32 127.55 138.18 126.19 141.00 126.00
C 142.65 125.89 144.35 126.00 146.00 126.00
C 146.50 126.00 147.81 126.24 148.00 126.00
C 151.47 117.96 154.61 109.05 159.00 101.00
C 163.41 92.92 184.54 96.88 192.00 99.00
C 193.86 99.19 195.17 99.81 197.00 100.00
C 197.91 100.09 199.13 99.74 200.00 100.00
C 210.09 103.03 213.44 123.10 207.00 129.00
C 209.78 132.64 218.11 133.22 222.00 136.00
C 212.73 127.30 220.93 111.63 229.00 105.00
C 220.30 105.47 215.66 90.15 206.75 88.25 C 197.83 86.36 189.59 78.22 179.00 78.00 C 168.41 77.78 155.29 78.74 145.69 82.69 C 136.10 86.65 129.28 92.18 120.00 95.00 Z"/>
</g>
<g fill="#8AA4BE" fill-opacity="1.00" stroke="None">
<path d="
M 114.00 97.00 
C 114.50 97.00 115.50 97.00 116.00 97.00
C 126.36 97.00 136.26 95.57 145.00 101.00
C 145.36 101.22 146.00 101.00 146.00 101.00
C 142.87 93.50 126.75 94.48 120.00 95.00
C 116.81 95.24 116.19 94.93 114.00 97.00 Z"/>
</g>
<g fill="#60718F" fill-opacity="1.00" stroke="None">
<path d="
M 245.00 97.00 
C 245.80 96.76 247.16 97.00 248.00 97.00
C 251.54 96.22 254.52 96.24 258.00 97.00
C 258.94 97.21 260.08 96.73 261.00 97.00
C 256.98 94.83 252.30 94.53 247.00 95.00
C 246.60 95.14 245.45 96.78 245.00 97.00 Z"/>
</g>
<g fill="#8B97AD" fill-opacity="1.00" stroke="None">
<path d="
M 248.00 97.00 
C 251.08 97.00 255.00 96.34 258.00 97.00
C 254.52 96.24 251.54 96.22 248.00 97.00 Z"/>
</g>
<g fill="#85909D" fill-opacity="1.00" stroke="None">
<path d="
M 103.00 102.00 
C 104.77 101.17 106.14 100.53 108.00 100.00
C 109.16 99.40 110.85 97.48 112.00 97.00
C 112.00 97.00 111.47 96.89 111.00 97.00
C 107.48 97.81 105.70 100.19 103.00 102.00 Z"/>
</g>
<g fill="#BAC5D3" fill-opacity="1.00" stroke="None">
<path d="
M 108.00 100.00 
C 110.37 99.33 114.31 97.34 116.00 97.00
C 115.50 97.00 114.50 97.00 114.00 97.00
C 113.50 97.00 112.50 97.00 112.00 97.00
C 110.85 97.48 109.16 99.40 108.00 100.00 Z"/>
</g>
<g fill="#F6F3F5" fill-opacity="1.00" stroke="None">
<path d="
M 108.00 100.00 
C 106.14 100.53 104.77 101.17 103.00 102.00
C 93.04 106.65 79.70 119.10 75.00 130.00
C 73.47 133.54 71.60 136.94 70.00 140.00
C 68.98 143.61 68.15 146.01 68.00 150.00
C 67.80 155.30 67.43 160.44 70.00 165.00
C 80.39 178.70 97.86 176.25 112.00 170.00
C 114.49 168.09 115.69 164.49 117.00 162.00
C 117.44 160.37 118.13 158.82 118.00 157.00
C 110.40 161.12 97.74 165.05 89.00 160.00
C 83.60 155.90 82.10 148.47 83.00 142.00
C 83.81 136.21 87.54 131.53 91.00 128.00
C 99.39 111.86 123.63 102.09 138.00 117.00
C 141.50 113.24 142.69 108.70 144.00 104.00
C 144.17 103.40 144.31 101.38 145.00 101.00
C 136.26 95.57 126.36 97.00 116.00 97.00
C 114.31 97.34 110.37 99.33 108.00 100.00 Z"/>
</g>
<g fill="#AAC2D6" fill-opacity="1.00" stroke="None">
<path d="
M 159.00 101.00 
C 162.63 97.27 168.87 99.08 174.00 99.00 C 179.13 98.92 186.71 98.47 192.00 99.00
C 184.54 96.88 163.41 92.92 159.00 101.00 Z"/>
</g>
<g fill="#AFC1D3" fill-opacity="1.00" stroke="None">
<path d="
M 229.00 105.00 
C 220.93 111.63 212.73 127.30 222.00 136.00
C 222.27 136.25 223.00 136.00 223.00 136.00
C 222.05 128.82 216.42 127.00 221.31 118.31 C 226.19 109.61 235.36 99.86 245.00 97.00
C 239.78 99.54 233.62 101.20 229.00 105.00 Z"/>
</g>
<g fill="#F8F7F8" fill-opacity="1.00" stroke="None">
<path d="
M 223.00 136.00 
C 226.53 138.69 229.86 141.07 233.00 144.00
C 238.73 149.35 236.87 153.86 230.00 157.00
C 228.75 157.81 227.46 159.64 226.00 160.00
C 225.52 160.46 211.66 165.20 212.00 154.00
C 210.34 154.54 209.67 156.56 208.00 157.00
C 205.75 158.42 203.06 159.96 201.00 162.00
C 199.78 163.42 196.87 164.32 198.00 167.00
C 198.20 167.48 199.67 167.73 200.00 168.00
C 202.80 170.30 205.37 171.97 209.01 172.99 C 212.65 174.01 218.23 172.95 221.00 175.00
C 221.50 175.00 222.00 175.00 222.00 175.00
C 226.00 175.14 231.98 169.61 235.00 167.00
C 244.76 158.57 260.39 142.79 245.00 131.00
C 236.66 125.56 228.45 116.46 242.00 110.00
C 246.75 107.30 254.23 106.55 257.00 113.00
C 258.87 112.99 262.01 108.21 262.00 112.00
C 263.13 111.04 262.42 111.28 263.00 110.00
C 263.76 108.34 265.47 106.82 267.00 106.00
C 266.48 100.77 261.47 99.24 258.00 97.00
C 255.00 96.34 251.08 97.00 248.00 97.00
C 247.16 97.00 245.80 96.76 245.00 97.00
C 235.36 99.86 226.19 109.61 221.31 118.31 C 216.42 127.00 222.05 128.82 223.00 136.00 Z"/>
</g>
<g fill="#C2C8D3" fill-opacity="1.00" stroke="None">
<path d="
M 263.00 110.00 
C 263.48 109.91 264.55 110.15 265.00 110.00
C 266.02 109.40 266.37 106.96 268.00 107.00
C 267.87 102.59 264.15 99.37 261.00 97.00
C 260.08 96.73 258.94 97.21 258.00 97.00
C 261.47 99.24 266.48 100.77 267.00 106.00
C 265.47 106.82 263.76 108.34 263.00 110.00 Z"/>
</g>
<g fill="#8893A9" fill-opacity="1.00" stroke="None">
<path d="
M 265.00 110.00 
C 273.66 107.02 264.96 99.14 261.00 97.00
C 264.15 99.37 267.87 102.59 268.00 107.00
C 266.37 106.96 266.02 109.40 265.00 110.00 Z"/>
</g>
<g fill="#FBF9FA" fill-opacity="1.00" stroke="None">
<path d="
M 159.00 101.00 
C 154.61 109.05 151.47 117.96 148.00 126.00
C 144.70 133.66 140.61 140.22 138.00 148.00
C 137.57 149.29 137.32 150.63 137.00 152.00
C 135.63 157.81 133.33 162.12 130.00 167.00
C 129.21 168.16 127.70 169.44 128.00 171.00
C 129.44 174.40 139.53 171.39 144.00 172.00 C 148.47 172.61 155.35 172.57 161.02 171.02 C 166.70 169.47 167.11 170.23 174.08 166.08 C 181.05 161.94 187.38 158.57 192.75 151.75 C 198.12 144.94 203.28 136.86 206.00 129.00
C 205.74 128.76 206.00 126.39 206.00 126.00
C 206.00 120.67 206.00 115.33 206.00 110.00
C 206.00 109.50 206.00 109.00 206.00 109.00
C 206.00 108.50 206.00 108.00 206.00 108.00
C 203.21 105.33 200.65 101.49 197.00 100.00
C 195.17 99.81 193.86 99.19 192.00 99.00
C 186.71 98.47 179.13 98.92 174.00 99.00 C 168.87 99.08 162.63 97.27 159.00 101.00
M 192.00 126.00 
C 190.92 131.05 189.87 133.68 187.00 138.00
C 184.21 144.45 176.44 155.37 169.00 157.00
C 168.80 164.19 136.05 163.20 149.00 153.00
C 149.13 152.90 151.04 151.94 151.00 152.00
C 151.90 149.20 153.00 146.73 154.00 144.00
C 156.53 137.05 158.82 129.91 163.00 124.00
C 163.42 121.09 165.86 117.70 167.00 115.00
C 170.09 107.67 177.58 109.64 185.01 110.99 C 192.44 112.34 193.20 120.40 192.00 126.00 Z"/>
</g>
<g fill="#A1BBD1" fill-opacity="1.00" stroke="None">
<path d="
M 206.00 108.00 
C 205.63 106.12 201.83 100.81 200.00 100.00
C 199.13 99.74 197.91 100.09 197.00 100.00
C 200.65 101.49 203.21 105.33 206.00 108.00 Z"/>
</g>
<g fill="#467CA9" fill-opacity="1.00" stroke="None">
<path d="
M 206.00 108.00 
C 206.00 108.00 206.00 108.50 206.00 109.00
C 210.90 112.76 209.58 124.03 207.00 129.00
C 213.44 123.10 210.09 103.03 200.00 100.00
C 201.83 100.81 205.63 106.12 206.00 108.00 Z"/>
</g>
<g fill="#BC585F" fill-opacity="1.00" stroke="None">
<path d="
M 144.00 104.00 
C 146.49 104.50 149.24 102.44 146.00 101.00
C 146.00 101.00 145.36 101.22 145.00 101.00
C 144.31 101.38 144.17 103.40 144.00 104.00 Z"/>
</g>
<g fill="#BAC3D1" fill-opacity="1.00" stroke="None">
<path d="
M 242.00 110.00 
C 242.41 109.81 243.50 110.00 244.00 110.00
C 246.50 110.00 250.66 109.18 253.00 110.00
C 256.59 111.26 254.51 114.27 259.00 113.00
C 259.98 112.49 261.02 112.83 262.00 112.00
C 262.01 108.21 258.87 112.99 257.00 113.00
C 254.23 106.55 246.75 107.30 242.00 110.00 Z"/>
</g>
<g fill="#7DA4C3" fill-opacity="1.00" stroke="None">
<path d="
M 206.00 110.00 
C 209.98 114.90 206.90 121.04 206.00 126.00
C 206.00 126.39 205.74 128.76 206.00 129.00
C 206.27 129.25 207.00 129.00 207.00 129.00
C 209.58 124.03 210.90 112.76 206.00 109.00
C 206.00 109.00 206.00 109.50 206.00 110.00 Z"/>
</g>
<g fill="#AAC6DB" fill-opacity="1.00" stroke="None">
<path d="
M 167.00 115.00 
C 172.72 107.15 197.87 112.78 192.00 126.00
C 193.20 120.40 192.44 112.34 185.01 110.99 C 177.58 109.64 170.09 107.67 167.00 115.00 Z"/>
</g>
<g fill="#C3D4E2" fill-opacity="1.00" stroke="None">
<path d="
M 206.00 126.00 
C 206.90 121.04 209.98 114.90 206.00 110.00
C 206.00 115.33 206.00 120.67 206.00 126.00 Z"/>
</g>
<g fill="#446890" fill-opacity="1.00" stroke="None">
<path d="
M 245.00 131.00 
C 246.43 131.93 249.04 133.72 250.00 135.00
C 244.24 129.26 243.04 121.09 240.00 114.00
C 241.14 112.83 244.49 112.06 244.00 110.00
C 243.50 110.00 242.41 109.81 242.00 110.00
C 228.45 116.46 236.66 125.56 245.00 131.00 Z"/>
</g>
<g fill="#8896AE" fill-opacity="1.00" stroke="None">
<path d="
M 259.00 113.00 
C 254.51 114.27 256.59 111.26 253.00 110.00
C 254.13 114.92 255.74 114.70 259.00 113.00 Z"/>
</g>
<g fill="#568DB8" fill-opacity="1.00" stroke="None">
<path d="
M 167.00 115.00 
C 165.86 117.70 163.42 121.09 163.00 124.00
C 163.23 123.75 164.00 124.00 164.00 124.00
C 166.79 121.26 168.25 117.11 169.00 113.00
C 177.76 111.86 195.24 113.15 190.00 126.00
C 190.06 125.84 191.92 126.19 192.00 126.00
C 197.87 112.78 172.72 107.15 167.00 115.00 Z"/>
</g>
<g fill="#346CA1" fill-opacity="1.00" stroke="None">
<path d="
M 164.00 124.00 
C 164.25 124.25 164.00 125.00 164.00 125.00
C 167.46 125.31 173.52 125.08 176.67 125.33 C 179.82 125.58 187.30 127.91 190.00 126.00
C 195.24 113.15 177.76 111.86 169.00 113.00
C 168.25 117.11 166.79 121.26 164.00 124.00 Z"/>
</g>
<g fill="#F2CBCD" fill-opacity="1.00" stroke="None">
<path d="
M 154.00 144.00 
C 156.21 140.24 157.69 137.49 159.00 133.00
C 159.84 130.10 160.85 126.29 163.00 124.00
C 158.82 129.91 156.53 137.05 154.00 144.00 Z"/>
</g>
<g fill="#DF969C" fill-opacity="1.00" stroke="None">
<path d="
M 159.00 133.00 
C 160.15 130.48 162.83 127.97 164.00 125.00
C 164.00 125.00 164.25 124.25 164.00 124.00
C 164.00 124.00 163.23 123.75 163.00 124.00
C 160.85 126.29 159.84 130.10 159.00 133.00 Z"/>
</g>
<g fill="#CD3640" fill-opacity="1.00" stroke="None">
<path d="
M 159.00 133.00 
C 157.69 137.49 156.21 140.24 154.00 144.00
C 153.00 146.73 151.90 149.20 151.00 152.00
C 150.36 154.00 149.43 155.90 149.00 158.00
C 155.25 161.02 161.81 157.52 168.00 157.00
C 168.50 156.99 169.00 157.00 169.00 157.00
C 176.44 155.37 184.21 144.45 187.00 138.00
C 188.68 134.11 188.60 129.83 190.00 126.00
C 187.30 127.91 179.82 125.58 176.67 125.33 C 173.52 125.08 167.46 125.31 164.00 125.00
C 162.83 127.97 160.15 130.48 159.00 133.00 Z"/>
</g>
<g fill="#6D5175" fill-opacity="1.00" stroke="None">
<path d="
M 133.00 128.00 
C 133.50 128.03 134.58 128.18 135.00 128.00
C 135.65 127.72 137.28 128.00 138.00 128.00
C 138.57 127.89 140.48 126.12 141.00 126.00
C 138.18 126.19 135.32 127.55 133.00 128.00 Z"/>
</g>
<g fill="#93455E" fill-opacity="1.00" stroke="None">
<path d="
M 138.00 128.00 
C 141.42 128.01 143.33 127.28 146.00 126.00
C 144.35 126.00 142.65 125.89 141.00 126.00
C 140.48 126.12 138.57 127.89 138.00 128.00 Z"/>
</g>
<g fill="#BD323A" fill-opacity="1.00" stroke="None">
<path d="
M 138.00 128.00 
C 137.28 128.00 135.65 127.72 135.00 128.00
C 130.25 129.28 125.40 130.48 120.00 131.00
C 109.29 132.04 95.87 136.01 86.00 140.00
C 85.83 140.33 85.05 140.77 85.00 141.00
C 80.52 161.20 99.57 161.77 113.00 157.00
C 115.24 156.20 116.86 155.04 119.00 154.00
C 119.87 153.58 120.24 151.09 122.00 152.00
C 121.40 158.51 118.66 168.22 112.00 170.00
C 97.86 176.25 80.39 178.70 70.00 165.00
C 67.45 161.64 63.70 156.02 66.00 151.00
C 64.92 151.54 64.07 151.59 63.00 152.00
C 62.33 152.45 61.78 153.48 61.00 154.00
C 50.57 164.04 50.29 184.91 60.30 195.70 C 70.31 206.49 87.57 212.00 102.00 212.00
C 87.90 209.28 68.79 203.58 62.00 189.00
C 87.33 191.13 113.89 194.69 137.10 189.10 C 160.31 183.50 185.63 178.22 211.00 178.00
C 210.76 176.12 208.45 176.54 208.00 175.00
C 207.50 175.00 206.47 175.12 206.00 175.00
C 204.70 174.66 196.51 168.69 198.00 167.00
C 196.87 164.32 199.78 163.42 201.00 162.00
C 203.55 159.04 210.48 149.15 213.00 154.00
C 213.42 154.80 213.49 156.09 214.00 157.00
C 217.70 160.72 225.96 158.85 230.00 157.00
C 236.87 153.86 238.73 149.35 233.00 144.00
C 230.04 141.92 223.46 139.87 222.00 136.00
C 218.11 133.22 209.78 132.64 207.00 129.00
C 207.00 129.00 206.27 129.25 206.00 129.00
C 205.72 131.37 205.71 133.73 205.00 136.00
C 200.61 150.08 185.47 166.23 171.00 170.00
C 170.53 170.12 169.49 169.94 169.00 170.00
C 164.64 173.15 155.69 174.76 150.00 174.00 C 144.31 173.24 131.66 175.42 127.33 173.67 C 123.00 171.92 131.66 159.03 133.00 158.00
C 133.11 157.53 133.00 157.00 133.00 157.00
C 133.33 153.42 136.54 150.70 138.00 148.00
C 140.61 140.22 144.70 133.66 148.00 126.00
C 147.81 126.24 146.50 126.00 146.00 126.00
C 143.33 127.28 141.42 128.01 138.00 128.00 Z"/>
</g>
<g fill="#DF979D" fill-opacity="1.00" stroke="None">
<path d="
M 187.00 138.00 
C 189.87 133.68 190.92 131.05 192.00 126.00
C 191.92 126.19 190.06 125.84 190.00 126.00
C 188.60 129.83 188.68 134.11 187.00 138.00 Z"/>
</g>
<g fill="#ADB8C9" fill-opacity="1.00" stroke="None">
<path d="
M 83.00 142.00 
C 83.21 141.54 84.82 141.31 85.00 141.00
C 86.14 139.01 86.71 136.06 88.00 134.00
C 89.18 132.12 89.94 129.76 91.00 128.00
C 87.54 131.53 83.81 136.21 83.00 142.00 Z"/>
</g>
<g fill="#90465F" fill-opacity="1.00" stroke="None">
<path d="
M 120.00 131.00 
C 125.40 130.48 130.25 129.28 135.00 128.00
C 134.58 128.18 133.50 128.03 133.00 128.00
C 127.84 127.64 124.26 130.01 120.00 131.00 Z"/>
</g>
<g fill="#EBC4C6" fill-opacity="1.00" stroke="None">
<path d="
M 128.00 171.00 
C 129.01 176.27 143.90 171.27 149.00 173.00 C 154.10 174.73 163.94 170.64 169.00 170.00
C 169.49 169.94 170.53 170.12 171.00 170.00
C 184.22 161.91 198.74 151.03 205.00 136.00
C 205.71 133.73 205.72 131.37 206.00 129.00
C 203.28 136.86 198.12 144.94 192.75 151.75 C 187.38 158.57 181.05 161.94 174.08 166.08 C 167.11 170.23 166.70 169.47 161.02 171.02 C 155.35 172.57 148.47 172.61 144.00 172.00 C 139.53 171.39 129.44 174.40 128.00 171.00 Z"/>
</g>
<g fill="#B3BBC9" fill-opacity="1.00" stroke="None">
<path d="
M 72.00 133.00 
C 70.41 135.47 70.75 137.34 70.00 140.00
C 71.60 136.94 73.47 133.54 75.00 130.00
C 74.39 130.92 72.64 132.01 72.00 133.00 Z"/>
</g>
<g fill="#404E6E" fill-opacity="1.00" stroke="None">
<path d="
M 57.00 155.00 
C 58.76 153.83 61.03 152.76 63.00 152.00
C 64.07 151.59 64.92 151.54 66.00 151.00
C 66.16 150.92 68.00 150.01 68.00 150.00
C 68.15 146.01 68.98 143.61 70.00 140.00
C 70.75 137.34 70.41 135.47 72.00 133.00
C 71.47 133.37 67.35 138.23 64.25 142.25 C 61.15 146.27 59.30 150.96 57.00 155.00 Z"/>
</g>
<g fill="#96A1AF" fill-opacity="1.00" stroke="None">
<path d="
M 235.00 167.00 
C 237.23 165.50 239.53 163.95 242.00 162.00
C 244.75 159.46 246.89 156.18 250.00 154.00
C 250.00 154.00 249.75 153.25 250.00 153.00
C 254.73 148.36 253.11 139.87 250.00 135.00
C 249.04 133.72 246.43 131.93 245.00 131.00
C 260.39 142.79 244.76 158.57 235.00 167.00 Z"/>
</g>
<g fill="#7284A0" fill-opacity="1.00" stroke="None">
<path d="
M 85.00 141.00 
C 85.05 140.77 85.83 140.33 86.00 140.00
C 86.95 138.15 87.18 135.81 88.00 134.00
C 86.71 136.06 86.14 139.01 85.00 141.00 Z"/>
</g>
<g fill="#D46A70" fill-opacity="1.00" stroke="None">
<path d="
M 171.00 170.00 
C 185.47 166.23 200.61 150.08 205.00 136.00
C 198.74 151.03 184.22 161.91 171.00 170.00 Z"/>
</g>
<g fill="#DE9BA1" fill-opacity="1.00" stroke="None">
<path d="
M 233.00 144.00 
C 229.86 141.07 226.53 138.69 223.00 136.00
C 223.00 136.00 222.27 136.25 222.00 136.00
C 223.46 139.87 230.04 141.92 233.00 144.00 Z"/>
</g>
<g fill="#E0858B" fill-opacity="1.00" stroke="None">
<path d="
M 83.00 142.00 
C 82.10 148.47 83.60 155.90 89.00 160.00
C 96.16 163.58 107.16 160.25 113.00 157.00
C 99.57 161.77 80.52 161.20 85.00 141.00
C 84.82 141.31 83.21 141.54 83.00 142.00 Z"/>
</g>
<g fill="#E38B90" fill-opacity="1.00" stroke="None">
<path d="
M 133.00 157.00 
C 134.30 156.00 136.37 153.35 137.00 152.00
C 137.32 150.63 137.57 149.29 138.00 148.00
C 136.54 150.70 133.33 153.42 133.00 157.00 Z"/>
</g>
<g fill="#D67177" fill-opacity="1.00" stroke="None">
<path d="
M 66.00 151.00 
C 63.70 156.02 67.45 161.64 70.00 165.00
C 67.43 160.44 67.80 155.30 68.00 150.00
C 68.00 150.01 66.16 150.92 66.00 151.00 Z"/>
</g>
<g fill="#523948" fill-opacity="1.00" stroke="None">
<path d="
M 57.00 155.00 
C 53.71 157.19 53.76 158.39 53.00 162.00
C 54.41 157.87 57.42 156.36 61.00 154.00
C 61.78 153.48 62.33 152.45 63.00 152.00
C 61.03 152.76 58.76 153.83 57.00 155.00 Z"/>
</g>
<g fill="#DC7D82" fill-opacity="1.00" stroke="None">
<path d="
M 119.00 154.00 
C 122.48 154.19 117.88 160.33 117.00 162.00
C 115.69 164.49 114.49 168.09 112.00 170.00
C 118.66 168.22 121.40 158.51 122.00 152.00
C 120.24 151.09 119.87 153.58 119.00 154.00 Z"/>
</g>
<g fill="#F3D5D7" fill-opacity="1.00" stroke="None">
<path d="
M 133.00 157.00 
C 133.00 157.00 133.11 157.53 133.00 158.00
C 132.34 160.80 131.20 164.37 130.00 167.00
C 133.33 162.12 135.63 157.81 137.00 152.00
C 136.37 153.35 134.30 156.00 133.00 157.00 Z"/>
</g>
<g fill="#E6999E" fill-opacity="1.00" stroke="None">
<path d="
M 149.00 153.00 
C 147.77 154.79 148.15 157.85 148.00 160.00
C 154.54 159.11 163.34 162.32 168.00 157.00
C 161.81 157.52 155.25 161.02 149.00 158.00
C 149.43 155.90 150.36 154.00 151.00 152.00
C 151.04 151.94 149.13 152.90 149.00 153.00 Z"/>
</g>
<g fill="#DD9195" fill-opacity="1.00" stroke="None">
<path d="
M 201.00 162.00 
C 203.06 159.96 205.75 158.42 208.00 157.00
C 209.21 156.00 210.96 151.61 213.00 154.00
C 210.48 149.15 203.55 159.04 201.00 162.00 Z"/>
</g>
<g fill="#F7E2E3" fill-opacity="1.00" stroke="None">
<path d="
M 169.00 157.00 
C 169.00 157.00 168.50 156.99 168.00 157.00
C 163.34 162.32 154.54 159.11 148.00 160.00
C 148.15 157.85 147.77 154.79 149.00 153.00
C 136.05 163.20 168.80 164.19 169.00 157.00 Z"/>
</g>
<g fill="#ECC7CA" fill-opacity="1.00" stroke="None">
<path d="
M 208.00 157.00 
C 209.67 156.56 210.34 154.54 212.00 154.00
C 211.66 165.20 225.52 160.46 226.00 160.00
C 222.07 160.97 216.05 160.70 214.00 157.00
C 213.49 156.09 213.42 154.80 213.00 154.00
C 210.96 151.61 209.21 156.00 208.00 157.00 Z"/>
</g>
<g fill="#72353C" fill-opacity="1.00" stroke="None">
<path d="
M 53.00 162.00 
C 50.76 172.64 51.31 184.71 57.00 194.00
C 62.03 200.97 71.15 205.46 78.00 209.00
C 88.87 214.62 114.59 216.85 126.00 212.00
C 118.00 212.00 110.00 212.00 102.00 212.00
C 87.57 212.00 70.31 206.49 60.30 195.70 C 50.29 184.91 50.57 164.04 61.00 154.00
C 57.42 156.36 54.41 157.87 53.00 162.00 Z"/>
</g>
<g fill="#F2CCCE" fill-opacity="1.00" stroke="None">
<path d="
M 113.00 157.00 
C 107.16 160.25 96.16 163.58 89.00 160.00
C 97.74 165.05 110.40 161.12 118.00 157.00
C 118.13 158.82 117.44 160.37 117.00 162.00
C 117.88 160.33 122.48 154.19 119.00 154.00
C 116.86 155.04 115.24 156.20 113.00 157.00 Z"/>
</g>
<g fill="#6B7074" fill-opacity="1.00" stroke="None">
<path d="
M 242.00 162.00 
C 244.40 160.11 249.64 156.94 250.00 154.00
C 246.89 156.18 244.75 159.46 242.00 162.00 Z"/>
</g>
<g fill="#CD686D" fill-opacity="1.00" stroke="None">
<path d="
M 226.00 160.00 
C 227.46 159.64 228.75 157.81 230.00 157.00
C 225.96 158.85 217.70 160.72 214.00 157.00
C 216.05 160.70 222.07 160.97 226.00 160.00 Z"/>
</g>
<g fill="#CC6C71" fill-opacity="1.00" stroke="None">
<path d="
M 169.00 170.00 
C 163.94 170.64 154.10 174.73 149.00 173.00 C 143.90 171.27 129.01 176.27 128.00 171.00
C 127.70 169.44 129.21 168.16 130.00 167.00
C 131.20 164.37 132.34 160.80 133.00 158.00
C 131.66 159.03 123.00 171.92 127.33 173.67 C 131.66 175.42 144.31 173.24 150.00 174.00 C 155.69 174.76 164.64 173.15 169.00 170.00 Z"/>
</g>
<g fill="#C3646A" fill-opacity="1.00" stroke="None">
<path d="
M 206.00 175.00 
C 203.22 173.30 201.81 170.29 200.00 168.00
C 199.67 167.73 198.20 167.48 198.00 167.00
C 196.51 168.69 204.70 174.66 206.00 175.00 Z"/>
</g>
<g fill="#E7C6C8" fill-opacity="1.00" stroke="None">
<path d="
M 206.00 175.00 
C 206.47 175.12 207.50 175.00 208.00 175.00
C 212.33 175.00 216.67 175.00 221.00 175.00
C 218.23 172.95 212.65 174.01 209.01 172.99 C 205.37 171.97 202.80 170.30 200.00 168.00
C 201.81 170.29 203.22 173.30 206.00 175.00 Z"/>
</g>
<g fill="#962D33" fill-opacity="1.00" stroke="None">
<path d="
M 102.00 212.00 
C 110.00 212.00 118.00 212.00 126.00 212.00
C 126.50 212.00 127.50 212.00 128.00 212.00
C 137.66 207.89 152.22 205.40 163.00 204.00
C 170.11 203.07 178.91 198.73 185.00 196.00 C 191.09 193.26 200.63 191.89 204.92 186.92 C 209.20 181.95 220.01 180.58 222.00 175.00
C 222.00 175.00 221.50 175.00 221.00 175.00
C 216.67 175.00 212.33 175.00 208.00 175.00
C 208.45 176.54 210.76 176.12 211.00 178.00
C 185.63 178.22 160.31 183.50 137.10 189.10 C 113.89 194.69 87.33 191.13 62.00 189.00
C 68.79 203.58 87.90 209.28 102.00 212.00 Z"/>
</g>
<g fill="#4F373E" fill-opacity="1.00" stroke="None">
<path d="
M 78.00 209.00 
C 71.15 205.46 62.03 200.97 57.00 194.00
C 61.82 201.87 70.09 206.33 78.00 209.00 Z"/>
</g>
<g fill="#58343A" fill-opacity="1.00" stroke="None">
<path d="
M 128.00 212.00 
C 141.10 212.00 151.74 207.80 163.00 204.00
C 152.22 205.40 137.66 207.89 128.00 212.00 Z"/>
</g>
<g fill="#585D62" fill-opacity="1.00" stroke="None">
<path d="
M 55.00 233.00 
C 58.21 231.41 63.59 234.19 67.00 233.00
C 67.00 234.67 67.00 236.33 67.00 238.00
C 70.02 235.45 66.73 231.54 64.00 231.00
C 72.48 226.94 67.71 217.75 60.01 218.01 C 52.30 218.27 48.30 228.57 57.00 231.00
C 56.80 232.34 55.43 231.87 55.00 233.00
M 62.00 220.00 
C 70.73 222.81 65.79 232.21 57.00 230.00
C 48.50 227.86 54.55 217.60 62.00 220.00 Z"/>
</g>
<g fill="#96999C" fill-opacity="1.00" stroke="None">
<path d="
M 57.00 230.00 
C 49.96 227.13 56.24 219.21 62.00 220.00
C 54.55 217.60 48.50 227.86 57.00 230.00 Z"/>
</g>
<g fill="#F0F0F0" fill-opacity="1.00" stroke="None">
<path d="
M 57.00 230.00 
C 65.79 232.21 70.73 222.81 62.00 220.00
C 56.24 219.21 49.96 227.13 57.00 230.00 Z"/>
</g>
<g fill="#E6E7E8" fill-opacity="1.00" stroke="None">
<path d="
M 47.00 233.00 
C 48.67 220.38 27.26 220.53 20.25 228.25 C 13.24 235.97 27.13 245.41 33.00 250.00
C 29.40 256.37 21.28 251.20 16.00 251.00
C 13.85 263.95 30.80 262.43 39.30 260.30 C 47.81 258.18 51.11 245.21 39.75 241.25 C 28.38 237.30 35.44 227.60 47.00 233.00 Z"/>
</g>
<g fill="#61666A" fill-opacity="1.00" stroke="None">
<path d="
M 110.00 228.00 
C 110.97 227.53 112.92 228.15 114.00 228.00
C 115.37 227.81 117.94 226.10 120.00 227.00
C 118.25 232.86 122.46 234.30 127.00 235.00
C 127.23 231.64 122.99 233.45 121.00 233.00
C 124.27 225.65 113.34 223.47 110.00 228.00 Z"/>
</g>
<g fill="#A8AAAD" fill-opacity="1.00" stroke="None">
<path d="
M 114.00 228.00 
C 115.67 228.03 117.33 227.98 119.00 228.00
C 117.50 233.13 120.89 236.44 126.00 235.00
C 125.84 242.72 117.88 237.51 118.00 246.00 C 118.12 254.50 121.22 253.36 125.00 258.00
C 130.00 254.44 124.37 253.38 121.26 252.74 C 118.14 252.11 120.99 243.85 120.00 242.00
C 124.57 243.68 129.19 239.82 127.00 235.00
C 122.46 234.30 118.25 232.86 120.00 227.00
C 117.94 226.10 115.37 227.81 114.00 228.00 Z"/>
</g>
<g fill="#F3F3F4" fill-opacity="1.00" stroke="None">
<path d="
M 109.00 232.00 
C 106.66 238.41 99.58 235.37 107.00 242.00
C 108.17 243.79 106.13 246.91 106.00 248.00
C 102.56 260.96 115.28 262.57 125.00 261.00
C 125.37 260.26 124.53 258.68 125.00 258.00
C 121.22 253.36 118.12 254.50 118.00 246.00 C 117.88 237.51 125.84 242.72 126.00 235.00
C 120.89 236.44 117.50 233.13 119.00 228.00
C 117.33 227.98 115.67 228.03 114.00 228.00
C 112.92 228.15 110.97 227.53 110.00 228.00
C 108.90 229.49 109.63 230.26 109.00 232.00 Z"/>
</g>
<g fill="#8A8E91" fill-opacity="1.00" stroke="None">
<path d="
M 105.00 242.00 
C 105.50 241.98 106.85 241.77 107.00 242.00
C 99.58 235.37 106.66 238.41 109.00 232.00
C 103.48 231.97 100.64 236.72 102.00 242.00
C 103.00 241.96 104.00 242.05 105.00 242.00 Z"/>
</g>
<g fill="#85898C" fill-opacity="1.00" stroke="None">
<path d="
M 53.00 249.00 
C 54.02 240.52 53.02 229.93 66.00 234.00
C 66.00 242.33 66.00 250.67 66.00 259.00
C 69.14 254.65 66.67 243.65 67.00 238.00
C 67.00 236.33 67.00 234.67 67.00 233.00
C 63.59 234.19 58.21 231.41 55.00 233.00
C 53.13 237.94 53.12 242.87 53.00 249.00 Z"/>
</g>
<g fill="#E9EAEB" fill-opacity="1.00" stroke="None">
<path d="
M 82.00 250.00 
C 86.80 255.97 75.62 253.76 72.00 253.00
C 71.50 256.34 72.02 259.52 75.00 261.00
C 87.97 263.87 106.18 255.88 90.00 245.00
C 88.39 243.92 85.98 243.12 86.00 241.00
C 89.22 239.03 93.38 240.42 97.00 240.00
C 97.73 236.85 96.43 234.43 94.00 233.00
C 87.15 231.84 79.16 231.69 74.26 237.26 C 69.36 242.82 79.40 246.77 82.00 250.00 Z"/>
</g>
<g fill="#8F9296" fill-opacity="1.00" stroke="None">
<path d="
M 90.00 245.00 
C 89.75 243.47 87.45 242.82 88.00 241.00
C 91.67 241.00 95.33 241.00 99.00 241.00
C 99.86 236.23 98.42 233.75 94.00 233.00
C 96.43 234.43 97.73 236.85 97.00 240.00
C 93.38 240.42 89.22 239.03 86.00 241.00
C 85.98 243.12 88.39 243.92 90.00 245.00 Z"/>
</g>
<g fill="#EEEFEF" fill-opacity="1.00" stroke="None">
<path d="
M 133.00 239.00 
C 128.48 246.38 130.23 258.58 140.00 261.00
C 144.70 261.72 151.27 261.57 156.00 261.00
C 159.06 260.20 160.73 257.27 161.00 254.00
C 160.00 254.00 159.00 254.00 158.00 254.00
C 157.61 254.21 156.50 254.00 156.00 254.00
C 153.57 255.03 143.93 256.72 143.00 252.00
C 143.00 250.67 143.00 249.33 143.00 248.00
C 150.00 248.00 157.00 248.00 164.00 248.00
C 167.34 230.00 141.31 228.89 133.00 239.00
M 153.00 241.00 
C 153.11 241.48 153.08 242.51 153.00 243.00
C 152.38 246.87 140.78 245.93 142.34 241.32 C 143.89 236.71 152.04 236.66 153.00 241.00 Z"/>
</g>
<g fill="#989B9E" fill-opacity="1.00" stroke="None">
<path d="
M 169.00 246.00 
C 169.61 242.61 172.54 238.35 171.00 234.00
C 175.56 232.84 180.97 235.47 184.00 235.00
C 181.35 234.98 174.82 230.73 171.10 233.10 C 167.38 235.47 169.00 242.04 169.00 246.00 Z"/>
</g>
<g fill="#EFF0F0" fill-opacity="1.00" stroke="None">
<path d="
M 184.00 235.00 
C 180.97 235.47 175.56 232.84 171.00 234.00
C 172.54 238.35 169.61 242.61 169.00 246.00
C 169.00 251.00 169.00 256.00 169.00 261.00
C 172.21 259.98 176.94 262.36 180.00 261.00
C 180.19 260.92 180.00 259.50 180.00 259.00
C 180.00 254.61 181.33 251.51 182.00 248.00
C 182.00 246.79 181.72 245.17 182.00 244.00
C 183.52 237.59 189.68 242.58 189.99 246.01 C 190.30 249.44 187.49 259.27 190.00 261.00
C 193.22 262.56 199.64 260.92 201.00 259.00
C 202.70 255.49 200.49 249.53 202.00 246.00
C 202.31 245.29 202.63 243.81 203.00 243.00
C 204.29 240.17 208.28 240.41 209.75 243.25 C 211.22 246.09 209.17 250.84 209.00 253.00
C 209.14 259.81 211.98 263.85 220.00 261.00
C 222.63 259.14 220.80 251.07 221.99 247.99 C 223.19 244.92 222.36 237.36 220.00 235.00
C 213.94 230.24 206.05 234.10 200.00 236.00
C 196.76 229.68 188.68 234.17 184.00 235.00 Z"/>
</g>
<g fill="#8C8F93" fill-opacity="1.00" stroke="None">
<path d="
M 233.00 235.00 
C 233.32 234.77 239.65 233.06 240.00 233.00
C 237.30 233.15 234.74 232.75 233.00 235.00 Z"/>
</g>
<g fill="#E9E9EA" fill-opacity="1.00" stroke="None">
<path d="
M 233.00 235.00 
C 232.03 236.25 232.32 236.30 232.00 238.00
C 232.73 241.75 236.41 239.23 239.00 239.00
C 240.60 238.67 247.41 235.99 248.00 240.00
C 248.22 241.48 247.23 242.48 246.00 243.00
C 239.90 245.59 230.51 242.97 227.00 251.00
C 226.15 254.43 228.75 259.97 232.00 261.00
C 236.00 261.00 240.00 261.00 244.00 261.00
C 246.10 255.84 243.73 254.78 239.00 254.00
C 239.99 250.05 244.64 250.39 248.00 250.00
C 248.71 253.95 246.52 257.13 247.00 261.00
C 251.66 260.50 257.50 262.53 260.00 259.00
C 261.05 256.83 260.00 251.46 260.00 249.00
C 260.00 245.47 260.53 241.48 260.00 238.00
C 259.87 237.12 259.68 235.68 259.00 235.00
C 255.43 231.42 244.77 232.74 240.00 233.00
C 239.65 233.06 233.32 234.77 233.00 235.00 Z"/>
</g>
<g fill="#E6E7E8" fill-opacity="1.00" stroke="None">
<path d="
M 276.00 250.00 
C 276.84 250.69 277.90 251.05 279.00 251.00
C 278.17 256.58 270.61 253.16 267.00 253.00
C 266.85 256.96 267.02 259.95 271.00 261.00
C 279.02 261.97 286.63 262.15 291.67 255.67 C 296.71 249.19 280.73 244.71 281.00 242.00
C 281.42 237.89 289.09 240.95 292.00 240.00
C 297.03 232.60 284.13 232.62 280.00 233.00 C 275.87 233.38 267.89 233.72 268.00 240.00 C 268.12 246.27 271.89 246.64 276.00 250.00 Z"/>
</g>
<g fill="#EAEAEB" fill-opacity="1.00" stroke="None">
<path d="
M 53.00 249.00 
C 53.73 253.28 51.68 256.85 52.00 261.00
C 56.46 260.06 63.04 263.10 66.00 259.00
C 66.00 250.67 66.00 242.33 66.00 234.00
C 53.02 229.93 54.02 240.52 53.00 249.00 Z"/>
</g>
<g fill="#7F8387" fill-opacity="1.00" stroke="None">
<path d="
M 220.00 261.00 
C 225.62 259.00 224.47 238.33 220.00 235.00
C 222.36 237.36 223.19 244.92 221.99 247.99 C 220.80 251.07 222.63 259.14 220.00 261.00 Z"/>
</g>
<g fill="#666A6F" fill-opacity="1.00" stroke="None">
<path d="
M 260.00 238.00 
C 260.73 240.14 261.01 242.27 261.00 245.00
C 261.49 241.37 263.09 237.86 259.00 235.00
C 259.68 235.68 259.87 237.12 260.00 238.00 Z"/>
</g>
<g fill="#BCBEC0" fill-opacity="1.00" stroke="None">
<path d="
M 153.00 243.00 
C 151.32 245.18 144.53 244.23 143.00 243.00
C 143.60 241.65 144.73 240.61 146.00 240.00
C 147.72 239.17 151.66 238.27 153.00 241.00
C 152.04 236.66 143.89 236.71 142.34 241.32 C 140.78 245.93 152.38 246.87 153.00 243.00 Z"/>
</g>
<g fill="#828589" fill-opacity="1.00" stroke="None">
<path d="
M 246.00 243.00 
C 247.23 242.48 248.22 241.48 248.00 240.00
C 247.37 238.21 240.45 238.87 239.00 239.00
C 236.41 239.23 232.73 241.75 232.00 238.00
C 230.53 238.27 231.11 240.00 231.00 241.00
C 236.47 241.10 241.39 239.29 247.00 240.00
C 246.94 240.86 246.83 242.45 246.00 243.00 Z"/>
</g>
<g fill="#AEB1B3" fill-opacity="1.00" stroke="None">
<path d="
M 239.00 239.00 
C 240.45 238.87 247.37 238.21 248.00 240.00
C 247.41 235.99 240.60 238.67 239.00 239.00 Z"/>
</g>
<g fill="#9CA0A2" fill-opacity="1.00" stroke="None">
<path d="
M 260.00 249.00 
C 260.00 248.96 261.00 249.00 261.00 249.00
C 261.00 247.67 260.99 246.33 261.00 245.00
C 261.01 242.27 260.73 240.14 260.00 238.00
C 260.53 241.48 260.00 245.47 260.00 249.00 Z"/>
</g>
<g fill="#8D9194" fill-opacity="1.00" stroke="None">
<path d="
M 140.00 261.00 
C 130.23 258.58 128.48 246.38 133.00 239.00
C 126.85 246.49 128.63 259.27 140.00 261.00 Z"/>
</g>
<g fill="#8C8F93" fill-opacity="1.00" stroke="None">
<path d="
M 146.00 240.00 
C 148.51 239.34 150.71 240.17 152.00 242.00
C 149.90 244.08 145.85 242.50 143.00 243.00
C 144.53 244.23 151.32 245.18 153.00 243.00
C 153.08 242.51 153.11 241.48 153.00 241.00
C 151.66 238.27 147.72 239.17 146.00 240.00 Z"/>
</g>
<g fill="#464C51" fill-opacity="1.00" stroke="None">
<path d="
M 143.00 243.00 
C 145.85 242.50 149.90 244.08 152.00 242.00
C 150.71 240.17 148.51 239.34 146.00 240.00
C 144.73 240.61 143.60 241.65 143.00 243.00 Z"/>
</g>
<g fill="#878B8E" fill-opacity="1.00" stroke="None">
<path d="
M 281.00 242.00 
C 283.59 239.18 289.95 243.01 292.00 240.00
C 289.09 240.95 281.42 237.89 281.00 242.00 Z"/>
</g>
<g fill="#7F8287" fill-opacity="1.00" stroke="None">
<path d="
M 182.00 244.00 
C 182.87 241.62 188.26 240.92 188.92 244.08 C 189.57 247.25 188.19 251.56 188.00 254.00
C 188.07 257.31 187.20 259.65 190.00 261.00
C 187.49 259.27 190.30 249.44 189.99 246.01 C 189.68 242.58 183.52 237.59 182.00 244.00 Z"/>
</g>
<g fill="#96999C" fill-opacity="1.00" stroke="None">
<path d="
M 203.00 243.00 
C 210.43 239.12 208.91 248.36 209.00 253.00
C 209.17 250.84 211.22 246.09 209.75 243.25 C 208.28 240.41 204.29 240.17 203.00 243.00 Z"/>
</g>
<g fill="#5F6468" fill-opacity="1.00" stroke="None">
<path d="
M 106.00 248.00 
C 106.13 246.91 108.17 243.79 107.00 242.00
C 106.85 241.77 105.50 241.98 105.00 242.00
C 104.83 242.46 105.95 246.99 106.00 248.00 Z"/>
</g>
<g fill="#565B60" fill-opacity="1.00" stroke="None">
<path d="
M 182.00 244.00 
C 181.72 245.17 182.00 246.79 182.00 248.00
C 182.00 249.33 182.00 250.67 182.00 252.00
C 184.23 249.43 181.84 241.31 188.00 243.00
C 188.05 246.67 187.93 250.33 188.00 254.00
C 188.19 251.56 189.57 247.25 188.92 244.08 C 188.26 240.92 182.87 241.62 182.00 244.00 Z"/>
</g>
<g fill="#8C9093" fill-opacity="1.00" stroke="None">
<path d="
M 201.00 259.00 
C 203.41 255.59 201.08 250.18 202.00 246.00
C 200.49 249.53 202.70 255.49 201.00 259.00 Z"/>
</g>
<g fill="#A5A8AA" fill-opacity="1.00" stroke="None">
<path d="
M 180.00 259.00 
C 180.51 257.32 181.25 254.60 182.00 253.00
C 182.00 253.00 182.00 252.50 182.00 252.00
C 182.00 250.67 182.00 249.33 182.00 248.00
C 181.33 251.51 180.00 254.61 180.00 259.00 Z"/>
</g>
<g fill="#696D72" fill-opacity="1.00" stroke="None">
<path d="
M 260.00 259.00 
C 261.74 256.54 261.00 252.25 261.00 249.00
C 261.00 249.00 260.00 248.96 260.00 249.00
C 260.00 251.46 261.05 256.83 260.00 259.00 Z"/>
</g>
<g fill="#7A7E83" fill-opacity="1.00" stroke="None">
<path d="
M 75.00 261.00 
C 72.02 259.52 71.50 256.34 72.00 253.00
C 75.62 253.76 86.80 255.97 82.00 250.00
C 82.03 251.14 83.53 251.72 83.00 253.00
C 75.57 247.63 64.35 258.64 75.00 261.00 Z"/>
</g>
<g fill="#777B7F" fill-opacity="1.00" stroke="None">
<path d="
M 266.00 253.00 
C 266.00 252.96 267.00 253.00 267.00 253.00
C 270.61 253.16 278.17 256.58 279.00 251.00
C 277.90 251.05 276.84 250.69 276.00 250.00
C 276.03 251.14 277.53 251.72 277.00 253.00
C 273.49 254.52 268.55 250.37 266.00 253.00 Z"/>
</g>
<g fill="#5B6065" fill-opacity="1.00" stroke="None">
<path d="
M 146.00 253.00 
C 148.98 254.01 152.40 254.00 156.00 254.00
C 156.50 254.00 157.61 254.21 158.00 254.00
C 159.08 253.41 160.32 252.48 162.00 253.00
C 162.62 254.95 160.80 256.13 161.00 258.00
C 168.28 247.39 150.88 253.09 146.00 253.00 Z"/>
</g>
<g fill="#898C90" fill-opacity="1.00" stroke="None">
<path d="
M 232.00 261.00 
C 228.75 259.97 226.15 254.43 227.00 251.00
C 225.33 254.81 227.03 259.86 232.00 261.00 Z"/>
</g>
<g fill="#ABADB0" fill-opacity="1.00" stroke="None">
<path d="
M 156.00 254.00 
C 152.40 254.00 148.98 254.01 146.00 253.00
C 145.16 252.71 143.58 252.95 143.00 252.00
C 143.93 256.72 153.57 255.03 156.00 254.00 Z"/>
</g>
<g fill="#989B9E" fill-opacity="1.00" stroke="None">
<path d="
M 158.00 254.00 
C 159.00 254.00 160.00 254.00 161.00 254.00
C 160.73 257.27 159.06 260.20 156.00 261.00
C 160.62 260.44 158.93 261.02 161.00 258.00
C 160.80 256.13 162.62 254.95 162.00 253.00
C 160.32 252.48 159.08 253.41 158.00 254.00 Z"/>
</g>
<g fill="#74787C" fill-opacity="1.00" stroke="None">
<path d="
M 180.00 259.00 
C 180.00 259.50 180.19 260.92 180.00 261.00
C 183.13 261.96 182.00 254.61 182.00 253.00
C 181.25 254.60 180.51 257.32 180.00 259.00 Z"/>
</g>
<g fill="#9C9FA2" fill-opacity="1.00" stroke="None">
<path d="
M 271.00 261.00 
C 267.02 259.95 266.85 256.96 267.00 253.00
C 267.00 253.00 266.00 252.96 266.00 253.00
C 266.00 255.67 266.00 258.33 266.00 261.00
C 267.65 261.15 269.36 260.80 271.00 261.00 Z"/>
</g>
</svg>